<?xml version="1.0" encoding="UTF-8" standalone="no"?>
<!-- Created with Inkscape (http://www.inkscape.org/) -->

<svg
   xmlns:dc="http://purl.org/dc/elements/1.1/"
   xmlns:cc="http://creativecommons.org/ns#"
   xmlns:rdf="http://www.w3.org/1999/02/22-rdf-syntax-ns#"
   xmlns:svg="http://www.w3.org/2000/svg"
   xmlns="http://www.w3.org/2000/svg"
   xmlns:sodipodi="http://sodipodi.sourceforge.net/DTD/sodipodi-0.dtd"
   xmlns:inkscape="http://www.inkscape.org/namespaces/inkscape"
   width="900"
   height="650"
   id="svg2"
   version="1.1"
   inkscape:version="0.48.4 r9939"
   sodipodi:docname="imagem.svg"
   inkscape:export-filename="/home/marcela/Projects/4Flyers/website_code/img/portfolio/portfolio_raspi_projects.png"
   inkscape:export-xdpi="90"
   inkscape:export-ydpi="90">
  <defs
     id="defs4">
    <inkscape:perspective
       sodipodi:type="inkscape:persp3d"
       inkscape:vp_x="0 : 526.18109 : 1"
       inkscape:vp_y="0 : 1000 : 0"
       inkscape:vp_z="744.09448 : 526.18109 : 1"
       inkscape:persp3d-origin="372.04724 : 350.78739 : 1"
       id="perspective10" />
    <inkscape:perspective
       id="perspective2464"
       inkscape:persp3d-origin="372.04724 : 350.78739 : 1"
       inkscape:vp_z="744.09448 : 526.18109 : 1"
       inkscape:vp_y="0 : 1000 : 0"
       inkscape:vp_x="0 : 526.18109 : 1"
       sodipodi:type="inkscape:persp3d" />
    <inkscape:perspective
       id="perspective2514"
       inkscape:persp3d-origin="372.04724 : 350.78739 : 1"
       inkscape:vp_z="744.09448 : 526.18109 : 1"
       inkscape:vp_y="0 : 1000 : 0"
       inkscape:vp_x="0 : 526.18109 : 1"
       sodipodi:type="inkscape:persp3d" />
    <inkscape:perspective
       id="perspective2566"
       inkscape:persp3d-origin="372.04724 : 350.78739 : 1"
       inkscape:vp_z="744.09448 : 526.18109 : 1"
       inkscape:vp_y="0 : 1000 : 0"
       inkscape:vp_x="0 : 526.18109 : 1"
       sodipodi:type="inkscape:persp3d" />
  </defs>
  <sodipodi:namedview
     id="base"
     pagecolor="#ffffff"
     bordercolor="#666666"
     borderopacity="1.0"
     inkscape:pageopacity="0.0"
     inkscape:pageshadow="2"
     inkscape:zoom="0.7"
     inkscape:cx="326.72052"
     inkscape:cy="300.87126"
     inkscape:document-units="px"
     inkscape:current-layer="layer1"
     showgrid="false"
     showguides="true"
     inkscape:guide-bbox="true"
     inkscape:window-width="1301"
     inkscape:window-height="744"
     inkscape:window-x="65"
     inkscape:window-y="24"
     inkscape:window-maximized="1">
    <sodipodi:guide
       orientation="0,1"
       position="430,582.85714"
       id="guide2996" />
    <sodipodi:guide
       orientation="0,1"
       position="531.42857,68.571429"
       id="guide2998" />
  </sodipodi:namedview>
  <metadata
     id="metadata7">
    <rdf:RDF>
      <cc:Work
         rdf:about="">
        <dc:format>image/svg+xml</dc:format>
        <dc:type
           rdf:resource="http://purl.org/dc/dcmitype/StillImage" />
        <dc:title></dc:title>
      </cc:Work>
    </rdf:RDF>
  </metadata>
  <g
     inkscape:label="Layer 1"
     inkscape:groupmode="layer"
     id="layer1"
     transform="translate(0,-402.36218)">
    <rect
       style="fill:#4ed765;fill-opacity:1;stroke:none"
       id="rect3002"
       width="900"
       height="650"
       x="0"
       y="402.36218"
       inkscape:export-xdpi="90"
       inkscape:export-ydpi="90" />
    <path
       inkscape:connector-curvature="0"
       id="path7966"
       d=""
       style="fill:#ffffff;fill-opacity:1;stroke:#ffffff;stroke-width:0.15769279;stroke-opacity:1" />
    <path
       style="fill:#ffffff;fill-opacity:1;stroke:#ffffff;stroke-width:0.15769279;stroke-opacity:1"
       d=""
       id="path18330"
       inkscape:connector-curvature="0" />
    <text
       xml:space="preserve"
       style="font-size:40px;font-style:normal;font-variant:normal;font-weight:normal;font-stretch:normal;line-height:125%;letter-spacing:0px;word-spacing:0px;fill:#000000;fill-opacity:1;stroke:none;font-family:Opificio;-inkscape-font-specification:Opificio"
       x="1011.7637"
       y="1616.1658"
       id="text20336"
       sodipodi:linespacing="125%"><tspan
         sodipodi:role="line"
         id="tspan20338"
         x="1011.7637"
         y="1616.1658" /></text>
    <path
       style="fill:#282a1f;fill-opacity:1;stroke:none"
       d=""
       id="path6775"
       inkscape:connector-curvature="0" />
    <path
       style="fill:#282a1f;fill-opacity:1;stroke:none"
       d=""
       id="path6777"
       inkscape:connector-curvature="0" />
    <path
       style="fill:#282a1f;fill-opacity:1;stroke:none"
       d=""
       id="path6779"
       inkscape:connector-curvature="0" />
    <path
       style="fill:#282a1f;fill-opacity:1;stroke:none"
       d=""
       id="path6781"
       inkscape:connector-curvature="0" />
    <path
       style="fill:#282a1f;fill-opacity:1;stroke:none"
       d=""
       id="path6783"
       inkscape:connector-curvature="0" />
    <path
       style="fill:none"
       inkscape:connector-curvature="0"
       id="path7598"
       d="m 1530.9366,366.0924 c -38.3677,0.0915 -76.7807,7.84814 -112.3173,22.65759 -35.5175,14.87028 -68.038,36.73677 -95.0722,63.95183 -27.0829,27.20368 -48.601,59.71786 -63.3674,95.40343 -14.5804,35.77094 -22.1304,74.01436 -22.001,112.39755 0.095,38.3601 7.8514,76.77319 22.6576,112.31735 14.8628,35.51438 36.7293,68.0349 63.9519,95.07217 27.204,27.08263 59.7254,48.60412 95.4035,63.36743 35.7633,14.57728 74.0143,22.1303 112.3975,22.00087 38.3676,-0.0915 76.7806,-7.84817 112.3173,-22.65748 35.5175,-14.87042 68.0381,-36.73684 95.0722,-63.95197 27.0829,-27.20367 48.601,-59.71779 63.3674,-95.40342 14.5804,-35.7708 22.1303,-74.01433 22.0009,-112.39757 -0.095,-38.36007 -7.8513,-76.77308 -22.6575,-112.31732 -14.8628,-35.51431 -36.7292,-68.03483 -63.9519,-95.07215 -27.2044,-27.0822 -59.7254,-48.60417 -95.4034,-63.36741 -35.7602,-14.58481 -74.0189,-22.14105 -112.3976,-22.0009 z m 197.5459,95.67393 c 25.861,25.68171 46.6622,56.59785 60.7984,90.37244 14.0722,33.80137 21.45,70.31696 21.532,106.77077 0.1306,36.46499 -7.0371,72.78767 -20.9057,106.82611 -14.0653,33.95762 -34.5023,64.82909 -60.2296,90.67111 -25.6778,25.87122 -56.5948,46.65472 -90.3725,60.79848 -33.7938,14.07522 -70.3214,21.43931 -106.7708,21.53197 -36.465,0.13051 -72.7877,-7.03709 -106.8261,-20.90569 -33.9576,-14.06533 -64.829,-34.50231 -90.6711,-60.22968 -25.8607,-25.682 -46.6623,-56.59783 -60.7984,-90.37244 -14.0722,-33.80138 -21.45,-70.31695 -21.532,-106.77079 -0.1305,-36.46492 7.037,-72.78768 20.9057,-106.82605 14.0653,-33.95768 34.5022,-64.82909 60.2296,-90.67118 25.6777,-25.87115 56.5948,-46.65464 90.3725,-60.79848 33.7938,-14.07522 70.3214,-21.43928 106.7708,-21.53197 36.465,-0.13049 72.7877,7.03708 106.8261,20.9057 33.9576,14.06544 64.8215,34.49924 90.6711,60.2297 z" />
    <path
       d="m 1418.6498,388.75627 c -35.4121,14.7673 -67.9328,36.63351 -95.0971,63.91478 -27.123,27.33057 -48.8003,59.97752 -63.3618,95.46648 -14.6106,35.49723 -22.0485,73.7709 -22.0346,112.39094 0.2184,38.62758 7.8783,76.84921 22.6865,112.26118 14.7672,35.40384 36.6335,67.92459 63.9148,95.097 27.3221,27.12323 59.9692,48.80037 95.4664,63.36185 35.4973,14.61056 73.7791,22.04848 112.3909,22.03457 38.6195,-0.21841 76.8493,-7.87832 112.2612,-22.68649 35.412,-14.76723 67.9328,-36.63351 95.0971,-63.91492 27.123,-27.3305 48.8003,-59.97731 63.3618,-95.46634 14.6106,-35.49723 22.0485,-73.77091 22.0346,-112.39094 -0.2185,-38.62764 -7.8784,-76.84923 -22.6865,-112.26117 -14.7672,-35.40385 -36.6335,-67.92458 -63.9148,-95.097 -27.3223,-27.12323 -59.9692,-48.8004 -95.4664,-63.36186 -35.4974,-14.6106 -73.7791,-22.04847 -112.3909,-22.03457 -38.6195,0.21022 -76.8576,7.87014 -112.2612,22.68649 z m 219.1214,12.79363 c 33.7202,13.83059 64.7693,34.43278 90.7545,60.2267 25.9366,25.84286 46.7263,56.75584 60.7524,90.40341 14.0751,33.63928 21.3532,69.94006 21.5662,106.69472 3e-4,36.75528 -7.0669,73.09769 -20.9466,106.8181 -13.8224,33.72837 -34.4327,64.76114 -60.2267,90.75447 -25.8353,25.93602 -56.7641,46.71821 -90.4035,60.75246 -33.6393,14.07513 -69.94,21.35315 -106.6947,21.56617 -36.7553,3.4e-4 -73.0976,-7.06696 -106.8181,-20.94662 -33.7202,-13.83058 -64.7693,-34.43272 -90.7544,-60.2267 -25.9362,-25.84321 -46.7264,-56.75585 -60.7524,-90.4034 -14.0751,-33.63929 -21.3532,-69.94001 -21.5662,-106.69471 -4e-4,-36.75536 7.0669,-73.09766 20.9466,-106.81807 13.8223,-33.72845 34.4327,-64.76115 60.2267,-90.75454 25.8352,-25.93596 56.764,-46.71814 90.4034,-60.7524 33.6393,-14.07512 69.94,-21.35324 106.6948,-21.56618 36.7552,-3.1e-4 73.0894,7.06696 106.818,20.94659 z"
       id="path7608"
       inkscape:connector-curvature="0"
       style="fill:none" />
    <path
       style="fill:none"
       inkscape:connector-curvature="0"
       id="path7618"
       d="m 1323.5833,452.66551 c -27.0654,27.19465 -48.7426,59.84173 -63.3989,95.4417 -14.5999,35.62951 -22.1333,74.08697 -22.0054,112.44695 0.086,38.38645 7.8608,76.59306 22.6528,112.26793 14.984,35.60369 36.6876,67.9846 63.9202,95.03411 27.1916,27.0577 59.8385,48.7351 95.4416,63.39902 35.622,14.60287 74.0794,22.13646 112.447,22.00533 38.3864,-0.0858 76.6006,-7.86392 112.2679,-22.65289 35.5961,-14.98074 67.9845,-36.68754 95.0341,-63.92011 27.0654,-27.19457 48.7427,-59.84159 63.3991,-95.44163 14.5997,-35.6295 22.1333,-74.08695 22.0053,-112.447 -0.086,-38.38641 -7.8608,-76.59296 -22.6529,-112.26791 -14.9839,-35.60369 -36.6875,-67.98453 -63.9201,-95.03413 -27.1914,-27.05798 -59.8385,-48.73508 -95.4417,-63.39898 -35.6219,-14.60288 -74.0793,-22.13641 -112.4469,-22.00535 -38.3864,0.0859 -76.6006,7.86388 -112.2679,22.65285 -35.5994,14.97333 -67.9953,36.68319 -95.0342,63.92011 z m 207.3378,-72.03432 c 36.4462,-0.12641 73.0158,7.02553 106.894,20.91194 33.8517,13.95069 64.889,34.55419 90.7237,60.27289 25.8772,25.69213 46.4927,56.44468 60.7549,90.3201 14.066,33.95737 21.4442,70.23777 21.5253,106.70291 0.1372,36.45054 -7.0286,73.00833 -20.9119,106.894 -13.9432,33.84851 -34.5648,64.88464 -60.2729,90.72378 -25.6921,25.87713 -56.4447,46.4927 -90.3201,60.75484 -33.9574,14.06601 -70.2378,21.4443 -106.7029,21.52537 -36.4462,0.1264 -73.0159,-7.02553 -106.894,-20.91199 -33.8517,-13.9506 -64.889,-34.55414 -90.7238,-60.27289 -25.8769,-25.69234 -46.4926,-56.44459 -60.7549,-90.32005 -14.0659,-33.95731 -21.4442,-70.23783 -21.5253,-106.70291 -0.1371,-36.45059 7.0286,-73.00836 20.912,-106.89404 13.9431,-33.84851 34.5649,-64.88456 60.2729,-90.7237 25.6922,-25.87713 56.4446,-46.49278 90.3201,-60.75491 33.9573,-14.06601 70.2302,-21.44114 106.7029,-21.52534 z" />
    <path
       d="m 1260.2103,548.09017 c -14.598,35.48206 -22.1319,73.93948 -22.0491,112.43834 0.1465,38.50448 7.9034,76.91745 22.7013,112.30852 14.7692,35.43164 36.5733,67.75453 63.8917,95.05324 27.4682,27.15934 59.9114,48.76975 95.4224,63.33885 35.4763,14.59231 73.9337,22.12616 112.4383,22.04912 38.4987,-0.14065 76.9118,-7.89757 112.3085,-22.70131 35.4316,-14.76919 67.7603,-36.57906 95.0532,-63.89167 27.1537,-27.46247 48.7699,-59.91139 63.3389,-95.42236 14.5981,-35.48214 22.1319,-73.93952 22.0491,-112.43837 -0.1463,-38.50453 -7.9033,-76.91746 -22.7012,-112.30857 -14.7692,-35.43163 -36.5733,-67.75448 -63.8916,-95.05315 -27.4684,-27.15936 -59.9115,-48.76981 -95.4225,-63.33894 -35.4763,-14.59227 -73.9336,-22.12616 -112.4384,-22.04907 -38.4987,0.14064 -76.9117,7.89752 -112.3085,22.70133 -35.4315,14.76913 -67.7603,36.57906 -95.0531,63.8916 -27.1596,27.45669 -48.7814,59.9115 -63.339,95.42244 z m 163.9888,-145.89576 c 33.6235,-14.06419 70.1465,-21.45128 106.7599,-21.58645 36.6135,-0.0658 73.1728,7.09189 106.8832,20.96642 33.7392,13.83399 64.5541,34.35611 90.6942,60.19491 25.9901,25.98977 46.6907,56.68502 60.7203,90.34332 14.0756,33.62345 21.4453,70.14068 21.5864,106.75979 0.072,36.60779 -7.1035,73.17303 -20.9665,106.88335 -13.8339,33.73909 -34.356,64.55402 -60.1949,90.69413 -25.9897,25.99021 -56.685,46.69076 -90.3433,60.72033 -33.6235,14.06412 -70.1464,21.45123 -106.7598,21.58639 -36.6136,0.0657 -73.173,-7.09192 -106.8833,-20.96641 -33.7392,-13.83397 -64.5541,-34.35606 -90.6942,-60.19499 -25.9901,-25.98965 -46.6907,-56.68492 -60.7203,-90.34324 -14.0757,-33.62351 -21.4454,-70.14071 -21.5863,-106.75981 -0.072,-36.60777 7.1034,-73.17302 20.9664,-106.88327 13.8339,-33.73923 34.356,-64.5541 60.195,-90.69421 25.9897,-25.99021 56.6791,-46.68501 90.3432,-60.72026 z"
       id="path7628"
       inkscape:connector-curvature="0"
       style="fill:none" />
    <path
       style="fill:none"
       inkscape:connector-curvature="0"
       id="path7638"
       d="m 1238.1789,660.50292 c 0.092,38.36764 7.8481,76.78066 22.6576,112.31734 14.8703,35.51745 36.7368,68.03797 63.9518,95.07211 27.204,27.08263 59.7179,48.60104 95.4035,63.36742 35.7708,14.58035 74.0143,22.1303 112.3975,22.00095 38.3601,-0.0947 76.7731,-7.85131 112.3174,-22.6576 35.5143,-14.8627 68.0348,-36.72919 95.072,-63.9519 27.083,-27.20374 48.6043,-59.72536 63.3676,-95.40342 14.5771,-35.7633 22.1302,-74.0144 22.0008,-112.39757 -0.091,-38.36765 -7.8481,-76.78066 -22.6576,-112.31732 -14.8703,-35.51747 -36.7367,-68.03799 -63.9518,-95.07215 -27.2037,-27.08291 -59.7179,-48.60101 -95.4034,-63.36741 -35.7709,-14.58032 -74.0143,-22.13031 -112.3976,-22.00097 -38.3601,0.0947 -76.7731,7.85137 -112.3173,22.65759 -35.5144,14.86278 -68.0349,36.72927 -95.0721,63.9519 -27.083,27.20375 -48.6043,59.72544 -63.3675,95.40343 -14.5848,35.7602 -22.141,74.01881 -22.0009,112.3976 z m 95.674,-197.54595 c 25.6816,-25.86091 56.5977,-46.66215 90.3724,-60.79841 33.8014,-14.07221 70.317,-21.45002 106.7708,-21.53204 36.4649,-0.1305 72.7876,7.03708 106.8261,20.90577 33.9576,14.06529 64.829,34.50233 90.671,60.22963 25.8712,25.67779 46.6547,56.59475 60.7985,90.37251 14.0753,33.79372 21.4393,70.3213 21.532,106.77077 0.1305,36.46492 -7.037,72.78767 -20.9057,106.82603 -14.0653,33.95769 -34.5023,64.82902 -60.2297,90.67111 -25.6817,25.86098 -56.5978,46.66223 -90.3725,60.79849 -33.8013,14.0722 -70.3169,21.44997 -106.7707,21.53202 -36.465,0.13052 -72.7877,-7.03709 -106.8261,-20.90576 -33.9576,-14.06532 -64.8291,-34.50231 -90.6711,-60.22961 -25.8714,-25.67751 -46.6547,-56.59477 -60.7985,-90.37251 -14.0752,-33.79377 -21.4393,-70.32136 -21.532,-106.77079 -0.1305,-36.46493 7.0371,-72.78767 20.9058,-106.8261 14.0653,-33.95755 34.4991,-64.82145 60.2297,-90.67111 z" />
    <path
       d="m 1260.8427,772.7897 c 14.7674,35.4121 36.6336,67.93277 63.915,95.09707 27.3303,27.12321 59.9773,48.80029 95.4663,63.36185 35.4973,14.61056 73.7709,22.04849 112.391,22.03456 38.6276,-0.21842 76.8492,-7.87836 112.2611,-22.68646 35.4039,-14.76727 67.9246,-36.63348 95.0971,-63.91491 27.1231,-27.32217 48.8004,-59.96918 63.3618,-95.46635 14.6105,-35.4973 22.0485,-73.77911 22.0346,-112.39094 -0.2184,-38.61944 -7.8783,-76.8493 -22.6865,-112.26117 -14.7673,-35.41212 -36.6335,-67.93278 -63.9148,-95.097 -27.3306,-27.12306 -59.9774,-48.80037 -95.4665,-63.36192 -35.4972,-14.61061 -73.7709,-22.0485 -112.3909,-22.03458 -38.6276,0.21844 -76.8492,7.87839 -112.2612,22.68649 -35.4038,14.7672 -67.9245,36.63348 -95.097,63.91485 -27.1232,27.32223 -48.8003,59.96925 -63.3619,95.46641 -14.6105,35.49731 -22.0484,73.77907 -22.0345,112.39091 0.2102,38.61947 7.8702,76.85748 22.6864,112.26119 z m 12.7937,-219.12136 c 13.8306,-33.72026 34.4327,-64.76934 60.2268,-90.75454 25.8429,-25.93654 56.7558,-46.72632 90.4034,-60.75239 33.6393,-14.07513 69.94,-21.35325 106.6947,-21.56626 36.7552,-3.1e-4 73.0976,7.06694 106.818,20.9466 33.7284,13.82243 64.7612,34.43273 90.7545,60.2267 25.936,25.83529 46.7182,56.76406 60.7525,90.40347 14.075,33.63922 21.3531,69.93999 21.5661,106.69466 4e-4,36.75535 -7.0669,73.09768 -20.9466,106.81809 -13.8306,33.72027 -34.4327,64.76935 -60.2267,90.75447 -25.8429,25.93661 -56.7558,46.72639 -90.4035,60.75247 -33.6393,14.07512 -69.9399,21.35322 -106.6947,21.56616 -36.7553,3.5e-4 -73.0976,-7.06696 -106.818,-20.94655 -33.7284,-13.82238 -64.7612,-34.4328 -90.7545,-60.22676 -25.9362,-25.83501 -46.7182,-56.76399 -60.7524,-90.40341 -14.0751,-33.63929 -21.3532,-69.94 -21.5662,-106.6947 -3e-4,-36.75529 7.067,-73.08953 20.9466,-106.81801 z"
       id="path7648"
       inkscape:connector-curvature="0"
       style="fill:none" />
    <path
       style="fill:none"
       inkscape:connector-curvature="0"
       id="path7658"
       d="m 1324.752,867.85619 c 27.1947,27.06526 59.8416,48.74261 95.4416,63.39902 35.6295,14.5997 74.087,22.13328 112.447,22.00533 38.3864,-0.0859 76.593,-7.86078 112.2679,-22.65288 35.6037,-14.98395 67.9845,-36.68754 95.0341,-63.92011 27.058,-27.19137 48.7351,-59.83853 63.399,-95.4417 14.6029,-35.62195 22.1365,-74.0794 22.0054,-112.44693 -0.086,-38.38648 -7.8639,-76.60058 -22.6529,-112.26791 -14.9808,-35.59621 -36.6876,-67.9846 -63.9201,-95.03413 -27.1946,-27.0654 -59.8416,-48.74264 -95.4416,-63.39905 -35.6295,-14.59968 -74.087,-22.13328 -112.447,-22.00528 -38.3864,0.0859 -76.593,7.86075 -112.2679,22.65285 -35.6037,14.98395 -67.9846,36.68754 -95.0342,63.92011 -27.0579,27.19137 -48.735,59.83853 -63.399,95.44163 -14.6028,35.62202 -22.1364,74.07945 -22.0053,112.447 0.086,38.38646 7.8639,76.60057 22.6528,112.26794 14.9733,35.59928 36.6832,67.99527 63.9202,95.03411 z m -72.0344,-207.33777 c -0.1264,-36.44612 7.0256,-73.01585 20.912,-106.89397 13.9506,-33.85164 34.5541,-64.88906 60.2729,-90.72377 25.6921,-25.87713 56.4447,-46.49271 90.32,-60.75491 33.9575,-14.06594 70.2379,-21.4442 106.703,-21.52527 36.4505,-0.13717 73.0083,7.02859 106.894,20.91194 33.8485,13.94314 64.8846,34.56481 90.7238,60.27289 25.8771,25.69213 46.4926,56.44461 60.7548,90.3201 14.0659,33.9573 21.4443,70.23777 21.5253,106.70291 0.1264,36.44619 -7.0255,73.01589 -20.912,106.89393 -13.9505,33.85172 -34.5541,64.88906 -60.2729,90.72378 -25.6921,25.87713 -56.4446,46.49277 -90.32,60.75491 -33.9574,14.06601 -70.2379,21.44422 -106.7029,21.52536 -36.4506,0.13708 -73.0084,-7.0287 -106.894,-20.91198 -33.8485,-13.94309 -64.8846,-34.56482 -90.7238,-60.27289 -25.8769,-25.69234 -46.4927,-56.44466 -60.7548,-90.32005 -14.066,-33.95739 -21.4411,-70.23032 -21.5254,-106.70298 z" />
    <path
       d="m 1420.1766,931.22921 c 35.4822,14.5981 73.9395,22.13195 112.4384,22.04913 38.5045,-0.14638 76.9174,-7.90334 112.3086,-22.70127 35.4315,-14.76912 67.7544,-36.57331 95.0532,-63.89167 27.1593,-27.46821 48.7697,-59.91139 63.3388,-95.42236 14.5923,-35.4764 22.1262,-73.9337 22.0491,-112.43843 -0.1406,-38.49868 -7.8975,-76.91169 -22.7013,-112.30851 -14.7691,-35.43156 -36.5791,-67.76033 -63.8916,-95.05315 -27.4625,-27.15365 -59.9114,-48.76988 -95.4224,-63.33886 -35.4821,-14.59813 -73.9395,-22.13195 -112.4383,-22.04915 -38.5046,0.14639 -76.9175,7.90334 -112.3086,22.70126 -35.4316,14.7692 -67.7545,36.57332 -95.0532,63.8916 -27.1595,27.46836 -48.7698,59.91153 -63.3389,95.42244 -14.5923,35.47639 -22.1262,73.93371 -22.0491,112.43844 0.1406,38.4987 7.8976,76.91167 22.7013,112.30851 14.7692,35.43158 36.5791,67.76032 63.8916,95.05318 27.4568,27.15939 59.9115,48.78139 95.4224,63.33884 z M 1274.2809,767.24055 c -14.0642,-33.62353 -21.4513,-70.14649 -21.5864,-106.75988 -0.066,-36.61357 7.0919,-73.17289 20.9664,-106.88332 13.8339,-33.73909 34.356,-64.55402 60.1949,-90.69413 25.9897,-25.99021 56.685,-46.69076 90.3433,-60.72033 33.6235,-14.07565 70.1407,-21.4454 106.7598,-21.58639 36.6078,-0.0715 73.1731,7.10349 106.8834,20.96649 33.7391,13.83392 64.554,34.35597 90.6941,60.19491 25.9902,25.98971 46.6908,56.68502 60.7203,90.34325 14.0642,33.62348 21.4512,70.14647 21.5864,106.75987 0.066,36.6136 -7.0919,73.17292 -20.9664,106.88327 -13.834,33.73916 -34.3561,64.55403 -60.195,90.69421 -25.9898,25.99014 -56.685,46.69076 -90.3432,60.72026 -33.6236,14.07571 -70.1407,21.44547 -106.7599,21.58642 -36.6077,0.0715 -73.173,-7.1035 -106.8833,-20.96647 -33.7391,-13.8339 -64.554,-34.35599 -90.6941,-60.19492 -25.9902,-25.98972 -46.685,-56.67921 -60.7203,-90.34324 z"
       id="path7668"
       inkscape:connector-curvature="0"
       style="fill:none" />
    <path
       style="fill:none"
       inkscape:connector-curvature="0"
       id="path7678"
       d="m 1532.5893,953.26063 c 38.3677,-0.0916 76.7807,-7.84818 112.3173,-22.65756 35.5175,-14.87028 68.038,-36.73677 95.0722,-63.9519 27.0822,-27.20438 48.601,-59.71786 63.3674,-95.40342 14.5803,-35.77087 22.1303,-74.01433 22.001,-112.39757 -0.095,-38.36007 -7.8514,-76.77315 -22.6576,-112.31732 -14.8628,-35.51438 -36.7293,-68.0349 -63.952,-95.07215 -27.2037,-27.08291 -59.7253,-48.60417 -95.4033,-63.36748 -35.7634,-14.57723 -74.0144,-22.13024 -112.3976,-22.00083 -38.3676,0.0915 -76.7806,7.84814 -112.3174,22.65752 -35.5174,14.87035 -68.038,36.73677 -95.072,63.9519 -27.083,27.20375 -48.6011,59.71779 -63.3675,95.40343 -14.5804,35.77087 -22.1303,74.01437 -22.0009,112.39756 0.095,38.36009 7.8512,76.77311 22.6575,112.31735 14.8627,35.5143 36.7292,68.03483 63.9519,95.0721 27.204,27.08263 59.7254,48.60418 95.4034,63.36742 35.7602,14.58483 74.0189,22.14105 112.3976,22.00095 z m -197.5459,-95.67395 c -25.8607,-25.68199 -46.6622,-56.59783 -60.7984,-90.37243 -14.0722,-33.80139 -21.45,-70.31696 -21.532,-106.7708 -0.1306,-36.46499 7.0371,-72.78767 20.9057,-106.82604 14.0653,-33.95769 34.5022,-64.82909 60.2296,-90.67118 25.6778,-25.87122 56.5948,-46.65471 90.3725,-60.79848 33.7938,-14.07522 70.3214,-21.43928 106.7709,-21.53197 36.4649,-0.13049 72.7876,7.03708 106.826,20.9057 33.9576,14.0653 64.829,34.50233 90.6711,60.2297 25.861,25.68171 46.6622,56.59785 60.7984,90.37244 14.0722,33.80137 21.45,70.31696 21.532,106.77077 0.1305,36.46492 -7.037,72.78767 -20.9057,106.82611 -14.0653,33.95762 -34.5023,64.82909 -60.2296,90.67111 -25.6778,25.87122 -56.5948,46.65465 -90.3725,60.79848 -33.7938,14.07522 -70.3214,21.43931 -106.7708,21.53196 -36.465,0.13052 -72.7877,-7.03708 -106.8261,-20.90569 -33.9576,-14.06539 -64.8215,-34.49924 -90.6711,-60.22968 z" />
    <path
       d="m 1644.8762,930.59665 c 35.412,-14.76722 67.9327,-36.63351 95.0971,-63.91485 27.123,-27.3305 48.8002,-59.97738 63.3618,-95.46641 14.6106,-35.49723 22.0485,-73.77091 22.0346,-112.39094 -0.2184,-38.62757 -7.8784,-76.84916 -22.6865,-112.26117 -14.7672,-35.40385 -36.6335,-67.92458 -63.9149,-95.097 -27.3221,-27.12315 -59.9692,-48.8004 -95.4663,-63.36185 -35.4973,-14.61054 -73.7791,-22.04848 -112.3909,-22.03458 -38.6195,0.21842 -76.8494,7.87832 -112.2612,22.68649 -35.4121,14.7673 -67.9328,36.63351 -95.097,63.91485 -27.1231,27.33057 -48.8005,59.97745 -63.3619,95.46641 -14.6106,35.49723 -22.0485,73.7709 -22.0346,112.39094 0.2184,38.62764 7.8783,76.84928 22.6865,112.26118 14.7672,35.40384 36.6334,67.92459 63.9148,95.097 27.3222,27.1233 59.9692,48.80037 95.4663,63.36185 35.4974,14.61063 73.7792,22.04849 112.391,22.03457 38.6195,-0.21022 76.8575,-7.87014 112.2612,-22.68649 z M 1425.7548,917.803 c -33.7202,-13.83052 -64.7694,-34.43272 -90.7545,-60.2267 -25.9362,-25.84321 -46.7263,-56.75579 -60.7524,-90.40341 -14.0751,-33.63928 -21.3532,-69.94 -21.5662,-106.6947 -3e-4,-36.75529 7.0669,-73.09768 20.9466,-106.81809 13.8224,-33.72838 34.4327,-64.76115 60.2267,-90.75447 25.8353,-25.93603 56.7641,-46.71822 90.4035,-60.75247 33.6392,-14.07506 69.9399,-21.35311 106.6946,-21.56611 36.7554,-3.9e-4 73.0977,7.06693 106.8181,20.94659 33.7203,13.83058 64.7693,34.43271 90.7545,60.2267 25.9358,25.84356 46.7264,56.75584 60.7524,90.4034 14.0751,33.63929 21.3532,69.93999 21.5661,106.69473 4e-4,36.75535 -7.0669,73.09768 -20.9465,106.81802 -13.8223,33.72845 -34.4328,64.76122 -60.2268,90.75454 -25.8352,25.93596 -56.764,46.71821 -90.4034,60.7524 -33.6392,14.07513 -69.9399,21.35324 -106.6947,21.56618 -36.7553,3.5e-4 -73.0894,-7.06697 -106.818,-20.94661 z"
       id="path7688"
       inkscape:connector-curvature="0"
       style="fill:none" />
    <path
       style="fill:none"
       inkscape:connector-curvature="0"
       id="path7698"
       d="m 1739.9426,866.68748 c 27.0654,-27.19457 48.7426,-59.84159 63.399,-95.44163 14.5997,-35.6295 22.1333,-74.08695 22.0054,-112.44693 -0.086,-38.38641 -7.8609,-76.59303 -22.653,-112.26798 -14.9839,-35.60369 -36.6875,-67.98453 -63.92,-95.03406 -27.1914,-27.05798 -59.8385,-48.73508 -95.4417,-63.39898 -35.622,-14.60295 -74.0794,-22.13648 -112.4469,-22.00535 -38.3865,0.0858 -76.6006,7.86388 -112.268,22.65278 -35.5961,14.98089 -67.9846,36.68761 -95.0341,63.92011 -27.0655,27.19465 -48.7427,59.84173 -63.399,95.4417 -14.5998,35.62958 -22.1333,74.08697 -22.0054,112.44694 0.086,38.38646 7.8608,76.59306 22.6529,112.268 14.984,35.60369 36.6876,67.98453 63.9201,95.03405 27.1916,27.0577 59.8385,48.7351 95.4417,63.39902 35.622,14.60293 74.0794,22.13645 112.4469,22.00532 38.3865,-0.0858 76.6006,-7.86391 112.2679,-22.65288 35.5994,-14.97319 67.9953,-36.68312 95.0342,-63.92011 z m -207.3377,72.03445 c -36.4462,0.12639 -73.0159,-7.02553 -106.8941,-20.91205 -33.8516,-13.95061 -64.8889,-34.55408 -90.7237,-60.2729 -25.877,-25.69234 -46.4927,-56.44459 -60.7549,-90.31998 -14.0659,-33.95739 -21.4442,-70.2379 -21.5254,-106.70298 -0.1371,-36.45059 7.0288,-73.00832 20.912,-106.89392 13.9431,-33.84858 34.5648,-64.88464 60.273,-90.72384 25.6921,-25.87714 56.4445,-46.49271 90.32,-60.75492 33.9573,-14.06593 70.2379,-21.44419 106.7029,-21.52533 36.4462,-0.12641 73.0159,7.02552 106.894,20.91201 33.8517,13.95062 64.889,34.55412 90.7238,60.27296 25.8771,25.69206 46.4927,56.44454 60.7548,90.31995 14.066,33.95738 21.4443,70.23792 21.5254,106.70298 0.1371,36.45055 -7.0287,73.00834 -20.912,106.89394 -13.943,33.84858 -34.5648,64.88464 -60.2729,90.72377 -25.6921,25.87713 -56.4446,46.49271 -90.32,60.75492 -33.9574,14.06593 -70.2303,21.44107 -106.7029,21.52539 z" />
    <path
       d="m 1803.3156,771.26282 c 14.598,-35.4822 22.1319,-73.93951 22.0491,-112.43836 -0.1464,-38.50453 -7.9033,-76.91746 -22.7012,-112.30857 -14.7692,-35.43163 -36.5734,-67.75448 -63.8917,-95.05322 -27.4683,-27.15944 -59.9115,-48.76981 -95.4224,-63.33887 -35.4764,-14.59227 -73.9337,-22.12616 -112.4384,-22.04907 -38.4987,0.14064 -76.9117,7.89752 -112.3085,22.70133 -35.4316,14.76913 -67.7603,36.57906 -95.0532,63.8916 -27.1537,27.46254 -48.7698,59.91139 -63.3389,95.42244 -14.5981,35.48206 -22.1319,73.93948 -22.0491,112.43834 0.1464,38.50447 7.9033,76.91745 22.7013,112.30851 14.7691,35.43158 36.5733,67.75454 63.8916,95.05317 27.4683,27.15942 59.9114,48.76982 95.4224,63.33892 35.4764,14.59232 73.9337,22.12616 112.4384,22.04913 38.4987,-0.14065 76.9117,-7.89764 112.3085,-22.70131 35.4316,-14.7692 67.7603,-36.57906 95.0532,-63.89167 27.1595,-27.45662 48.7814,-59.9115 63.3389,-95.42237 z m -163.9888,145.89576 c -33.6234,14.06412 -70.1464,21.45122 -106.7598,21.58638 -36.6135,0.0658 -73.1729,-7.09193 -106.8833,-20.96641 -33.7391,-13.83397 -64.554,-34.35606 -90.6941,-60.19492 -25.9902,-25.98972 -46.6908,-56.68499 -60.7203,-90.34331 -14.0757,-33.62343 -21.4454,-70.14063 -21.5864,-106.7598 -0.072,-36.60778 7.1035,-73.17303 20.9664,-106.88328 13.8339,-33.73922 34.3561,-64.55409 60.195,-90.6942 25.9897,-25.99021 56.6849,-46.69083 90.3432,-60.72026 33.6235,-14.06419 70.1465,-21.45129 106.7599,-21.58645 36.6136,-0.0657 73.1729,7.09196 106.8833,20.96641 33.7391,13.834 64.554,34.35612 90.6942,60.19499 25.99,25.9897 46.6907,56.68494 60.7202,90.34325 14.0757,33.62344 21.4455,70.14068 21.5864,106.75979 0.072,36.60778 -7.1035,73.17303 -20.9665,106.88335 -13.8338,33.73915 -34.3559,64.55402 -60.1949,90.69413 -25.9897,25.99021 -56.6791,46.68501 -90.3433,60.72033 z"
       id="path7708"
       inkscape:connector-curvature="0"
       style="fill:none" />
    <path
       style="fill:none"
       inkscape:connector-curvature="0"
       id="path7718"
       d="m 1825.347,658.85018 c -0.092,-38.36765 -7.8481,-76.78066 -22.6575,-112.31732 -14.8703,-35.51747 -36.7368,-68.03799 -63.9519,-95.07215 -27.2044,-27.0822 -59.7178,-48.60101 -95.4034,-63.36741 -35.7709,-14.58032 -74.0143,-22.13031 -112.3976,-22.00097 -38.36,0.0947 -76.7731,7.85137 -112.3173,22.65759 -35.5144,14.86277 -68.0349,36.72927 -95.0721,63.95197 -27.0829,27.20368 -48.6043,59.72537 -63.3675,95.40336 -14.5772,35.76336 -22.1303,74.01443 -22.0009,112.39762 0.091,38.36763 7.8482,76.78065 22.6576,112.31733 14.8703,35.51745 36.7368,68.03798 63.9519,95.07211 27.2039,27.08263 59.7178,48.60105 95.4034,63.36742 35.7708,14.58035 74.0143,22.1303 112.3975,22.00096 38.3601,-0.0947 76.7731,-7.85133 112.3174,-22.65762 35.5143,-14.8627 68.0348,-36.72919 95.0721,-63.9519 27.0829,-27.20367 48.6042,-59.72536 63.3674,-95.40335 14.5848,-35.76021 22.1411,-74.01888 22.0009,-112.39764 z m -95.6739,197.54591 c -25.6817,25.86098 -56.5978,46.66223 -90.3725,60.79849 -33.8013,14.07213 -70.3169,21.44996 -106.7707,21.53201 -36.465,0.13051 -72.7877,-7.0371 -106.8261,-20.90577 -33.9576,-14.06532 -64.8291,-34.5023 -90.6711,-60.2296 -25.8714,-25.67758 -46.6547,-56.59478 -60.7985,-90.37251 -14.0752,-33.79377 -21.4393,-70.32136 -21.532,-106.7708 -0.1305,-36.46492 7.0371,-72.78765 20.9058,-106.82608 14.0652,-33.95762 34.5023,-64.82902 60.2296,-90.67111 25.6818,-25.86098 56.5979,-46.66222 90.3725,-60.79841 33.8014,-14.0722 70.3169,-21.45001 106.7708,-21.53204 36.4649,-0.1305 72.7876,7.03708 106.826,20.90577 33.9577,14.06529 64.8291,34.50226 90.6712,60.22956 25.8711,25.67772 46.6546,56.59483 60.7984,90.37251 14.0753,33.79379 21.4393,70.32137 21.532,106.77084 0.1305,36.46492 -7.0371,72.7876 -20.9057,106.82603 -14.0654,33.95762 -34.4992,64.82152 -60.2297,90.67111 z" />
    <path
       d="m 1802.6831,546.56335 c -14.7673,-35.41212 -36.6335,-67.93278 -63.9148,-95.09714 -27.3305,-27.12299 -59.9774,-48.80023 -95.4665,-63.36178 -35.4972,-14.61061 -73.7709,-22.0485 -112.3909,-22.03458 -38.6276,0.21837 -76.8491,7.87832 -112.2612,22.68649 -35.4038,14.7672 -67.9245,36.63348 -95.097,63.91485 -27.1232,27.32223 -48.8004,59.96918 -63.3618,95.46634 -14.6106,35.49738 -22.0485,73.77913 -22.0346,112.39098 0.2184,38.61946 7.8783,76.84928 22.6865,112.26118 14.7673,35.4121 36.6335,67.93278 63.9148,95.09701 27.3304,27.12327 59.9774,48.80035 95.4664,63.36192 35.4973,14.61055 73.7709,22.04849 112.391,22.03456 38.6276,-0.21842 76.8492,-7.87836 112.2612,-22.68653 35.4038,-14.7672 67.9245,-36.63341 95.097,-63.91484 27.1232,-27.32224 48.8003,-59.96925 63.3618,-95.46635 14.6105,-35.4973 22.0485,-73.77911 22.0346,-112.39094 -0.2102,-38.61946 -7.8701,-76.85753 -22.6865,-112.26117 z m -12.7937,219.12137 c -13.8305,33.72019 -34.4327,64.76935 -60.2267,90.75447 -25.8429,25.93654 -56.7558,46.72639 -90.4034,60.7524 -33.6393,14.07512 -69.94,21.35325 -106.6947,21.56626 -36.7553,3.5e-4 -73.0977,-7.06702 -106.818,-20.94661 -33.7285,-13.82238 -64.7612,-34.43273 -90.7545,-60.2267 -25.9362,-25.83508 -46.7182,-56.76405 -60.7525,-90.40348 -14.075,-33.63921 -21.3531,-69.93993 -21.5662,-106.6947 -3e-4,-36.75529 7.067,-73.09763 20.9467,-106.81804 13.8305,-33.72019 34.4327,-64.76935 60.2267,-90.75447 25.8436,-25.93584 56.7558,-46.72639 90.4034,-60.7524 33.6393,-14.07512 69.94,-21.35324 106.6947,-21.56625 36.7554,-3.1e-4 73.0977,7.06701 106.818,20.9466 33.7285,13.82235 64.7613,34.4328 90.7546,60.22677 25.9359,25.83521 46.7181,56.76399 60.7524,90.4034 14.075,33.63922 21.3532,69.93999 21.5662,106.69472 3e-4,36.75529 -7.067,73.08949 -20.9467,106.81803 z"
       id="path7728"
       inkscape:connector-curvature="0"
       style="fill:none" />
    <path
       style="fill:none"
       inkscape:connector-curvature="0"
       id="path7738"
       d="m 1738.774,451.49688 c -27.1946,-27.06547 -59.8417,-48.74264 -95.4417,-63.39898 -35.6296,-14.59975 -74.0869,-22.13328 -112.4469,-22.00535 -38.3865,0.0858 -76.5931,7.86075 -112.268,22.65292 -35.6036,14.98388 -67.9845,36.68754 -95.0341,63.92004 -27.0579,27.19137 -48.7351,59.83846 -63.399,95.44163 -14.603,35.62202 -22.1364,74.07948 -22.0054,112.44696 0.086,38.38645 7.864,76.60063 22.6529,112.268 14.9808,35.59611 36.6876,67.98453 63.9201,95.03404 27.1948,27.06533 59.8417,48.74268 95.4416,63.39902 35.6296,14.59977 74.087,22.13328 112.447,22.00533 38.3865,-0.0858 76.5931,-7.86073 112.268,-22.65283 35.6037,-14.98395 67.9845,-36.68754 95.0341,-63.92004 27.058,-27.19144 48.7351,-59.8386 63.399,-95.44177 14.6029,-35.62195 22.1364,-74.07932 22.0054,-112.44693 -0.086,-38.38641 -7.864,-76.60051 -22.653,-112.26798 -14.9732,-35.59927 -36.6831,-67.99522 -63.92,-95.03406 z m 72.0343,207.33772 c 0.1264,36.44619 -7.0255,73.01589 -20.912,106.89394 -13.9506,33.85178 -34.5541,64.88906 -60.2729,90.72377 -25.6921,25.87713 -56.4446,46.49278 -90.32,60.75492 -33.9574,14.066 -70.2379,21.44425 -106.703,21.5254 -36.4505,0.13707 -73.0083,-7.02871 -106.8939,-20.91199 -33.8486,-13.9431 -64.8847,-34.56483 -90.7238,-60.27289 -25.8769,-25.69235 -46.4927,-56.44467 -60.7549,-90.32005 -14.066,-33.9574 -21.4442,-70.23783 -21.5253,-106.70292 -0.1264,-36.44619 7.0255,-73.01587 20.9119,-106.89399 13.9507,-33.85171 34.5542,-64.88899 60.273,-90.72384 25.6921,-25.87714 56.4446,-46.49264 90.3201,-60.75485 33.9573,-14.06593 70.2377,-21.44426 106.7029,-21.52533 36.4505,-0.13717 73.0082,7.02866 106.8939,20.91201 33.8486,13.94306 64.8846,34.56481 90.7238,60.27289 25.8771,25.69213 46.4927,56.44454 60.7549,90.32003 14.0659,33.9573 21.4411,70.23028 21.5253,106.7029 z" />
    <path
       d="m 1738.774,451.49688 c -27.1946,-27.06547 -59.8417,-48.74264 -95.4417,-63.39898 -35.6296,-14.59975 -74.0869,-22.13328 -112.4469,-22.00535 -38.3865,0.0858 -76.5931,7.86075 -112.268,22.65292 -35.6036,14.98388 -67.9845,36.68754 -95.0341,63.92004 -27.0579,27.19137 -48.7351,59.83846 -63.399,95.44163 -14.603,35.62202 -22.1364,74.07948 -22.0054,112.44696 0.086,38.38645 7.864,76.60063 22.6529,112.268 14.9808,35.59611 36.6876,67.98453 63.9201,95.03404 27.1948,27.06533 59.8417,48.74268 95.4416,63.39902 35.6296,14.59977 74.087,22.13328 112.447,22.00533 38.3865,-0.0858 76.5931,-7.86073 112.268,-22.65283 35.6037,-14.98395 67.9845,-36.68754 95.0341,-63.92004 27.058,-27.19144 48.7351,-59.8386 63.399,-95.44177 14.6029,-35.62195 22.1364,-74.07932 22.0054,-112.44693 -0.086,-38.38641 -7.864,-76.60051 -22.653,-112.26798 -14.9732,-35.59927 -36.6831,-67.99522 -63.92,-95.03406 z m 72.0343,207.33772 c 0.1264,36.44619 -7.0255,73.01589 -20.912,106.89394 -13.9506,33.85178 -34.5541,64.88906 -60.2729,90.72377 -25.6921,25.87713 -56.4446,46.49278 -90.32,60.75492 -33.9574,14.066 -70.2379,21.44425 -106.703,21.5254 -36.4505,0.13707 -73.0083,-7.02871 -106.8939,-20.91199 -33.8486,-13.9431 -64.8847,-34.56483 -90.7238,-60.27289 -25.8769,-25.69235 -46.4927,-56.44467 -60.7549,-90.32005 -14.066,-33.9574 -21.4442,-70.23783 -21.5253,-106.70292 -0.1264,-36.44619 7.0255,-73.01587 20.9119,-106.89399 13.9507,-33.85171 34.5542,-64.88899 60.273,-90.72384 25.6921,-25.87714 56.4446,-46.49264 90.3201,-60.75485 33.9573,-14.06593 70.2377,-21.44426 106.7029,-21.52533 36.4505,-0.13717 73.0082,7.02866 106.8939,20.91201 33.8486,13.94306 64.8846,34.56481 90.7238,60.27289 25.8771,25.69213 46.4927,56.44454 60.7549,90.32003 14.0659,33.9573 21.4411,70.23028 21.5253,106.7029 z"
       id="path7748"
       inkscape:connector-curvature="0"
       style="fill:none" />
    <path
       style="fill:none"
       inkscape:connector-curvature="0"
       id="path7784"
       d="m 1530.9366,366.09233 c -38.3676,0.0915 -76.7807,7.84821 -112.3173,22.65759 -35.5174,14.87028 -68.038,36.73677 -95.0721,63.95183 -27.083,27.20375 -48.6011,59.71793 -63.3675,95.4035 -14.5803,35.77087 -22.1303,74.01433 -22.0009,112.39752 0.095,38.36009 7.8513,76.77319 22.6575,112.31735 14.8628,35.51437 36.7293,68.0349 63.952,95.07217 27.2039,27.08263 59.7253,48.60411 95.4034,63.36742 35.7633,14.57728 74.0143,22.1303 112.3975,22.00088 38.3677,-0.0915 76.7807,-7.84821 112.3174,-22.65752 35.5174,-14.87035 68.038,-36.73677 95.0721,-63.9519 27.0829,-27.20374 48.6011,-59.71786 63.3674,-95.4035 14.5804,-35.77079 22.1304,-74.01432 22.0009,-112.39749 -0.095,-38.36014 -7.8512,-76.77315 -22.6575,-112.31739 -14.8628,-35.51438 -36.7292,-68.0349 -63.9519,-95.07208 -27.2037,-27.08298 -59.7254,-48.60417 -95.4035,-63.36748 -35.76,-14.58481 -74.0188,-22.14098 -112.3975,-22.0009 z m 197.5459,95.67393 c 25.861,25.68171 46.6623,56.59785 60.7985,90.37244 14.0722,33.80137 21.45,70.31696 21.5319,106.77084 0.1306,36.46499 -7.037,72.7876 -20.9057,106.82604 -14.0653,33.95762 -34.5022,64.82909 -60.2296,90.67118 -25.6777,25.87115 -56.5947,46.65465 -90.3724,60.79841 -33.7939,14.07529 -70.3215,21.43935 -106.7709,21.532 -36.4649,0.13052 -72.7877,-7.03708 -106.826,-20.90569 -33.9577,-14.06538 -64.8291,-34.5023 -90.6712,-60.22968 -25.8607,-25.68199 -46.6622,-56.59783 -60.7984,-90.37243 -14.0722,-33.80139 -21.45,-70.31695 -21.532,-106.7708 -0.1306,-36.46499 7.037,-72.78764 20.9057,-106.82608 14.0653,-33.95761 34.5023,-64.82909 60.2297,-90.67118 25.6777,-25.87115 56.5946,-46.65464 90.3724,-60.79841 33.7939,-14.07529 70.3214,-21.43935 106.7708,-21.53197 36.465,-0.13056 72.7876,7.03701 106.8261,20.9057 33.9576,14.0653 64.8214,34.49917 90.6711,60.22963 z" />
    <path
       d="m 1418.6497,388.75634 c -35.4119,14.7673 -67.9327,36.63351 -95.097,63.91485 -27.123,27.33057 -48.8003,59.97745 -63.3619,95.46641 -14.6105,35.49731 -22.0484,73.77096 -22.0345,112.39099 0.2184,38.62758 7.8783,76.84921 22.6865,112.26118 14.7672,35.40384 36.6334,67.92452 63.9149,95.09701 27.322,27.12323 59.9692,48.80037 95.4663,63.36185 35.4973,14.61055 73.7791,22.04848 112.391,22.03456 38.6194,-0.2184 76.8492,-7.8783 112.2611,-22.68647 35.4121,-14.76729 67.9328,-36.6335 95.0971,-63.91491 27.123,-27.33051 48.8003,-59.97739 63.3618,-95.46635 14.6106,-35.49723 22.0485,-73.77091 22.0346,-112.39094 -0.2185,-38.62764 -7.8783,-76.8493 -22.6865,-112.26117 -14.7672,-35.40385 -36.6335,-67.92458 -63.9148,-95.097 -27.3223,-27.12322 -59.9692,-48.8004 -95.4664,-63.36185 -35.4973,-14.61068 -73.7791,-22.04848 -112.3909,-22.03458 -38.6195,0.21022 -76.8576,7.87014 -112.2613,22.68642 z m 219.1215,12.7937 c 33.7202,13.83052 64.7693,34.43264 90.7545,60.2267 25.9366,25.84286 46.7263,56.75577 60.7524,90.40341 14.0751,33.63928 21.3533,69.93999 21.5662,106.69472 3e-4,36.75528 -7.0669,73.09769 -20.9466,106.8181 -13.8224,33.72837 -34.4327,64.76114 -60.2267,90.75447 -25.8353,25.93602 -56.7641,46.71821 -90.4035,60.75247 -33.6392,14.07505 -69.94,21.35312 -106.6946,21.56614 -36.7554,3.4e-4 -73.0977,-7.06696 -106.8181,-20.94661 -33.7203,-13.83059 -64.7694,-34.43272 -90.7545,-60.2267 -25.9363,-25.84328 -46.7264,-56.75586 -60.7524,-90.4034 -14.0751,-33.63929 -21.3532,-69.94002 -21.5662,-106.69472 -4e-4,-36.75536 7.067,-73.09771 20.9466,-106.81805 13.8223,-33.72844 34.4328,-64.76122 60.2267,-90.75454 25.8352,-25.93595 56.7641,-46.71821 90.4034,-60.7524 33.6393,-14.07512 69.94,-21.35324 106.6948,-21.56618 36.7553,-3.8e-4 73.0894,7.06696 106.818,20.94659 z"
       id="path7794"
       inkscape:connector-curvature="0"
       style="fill:none" />
    <path
       style="fill:none"
       inkscape:connector-curvature="0"
       id="path7804"
       d="m 1323.5834,452.66544 c -27.0655,27.19465 -48.7427,59.84166 -63.3991,95.4417 -14.5997,35.62951 -22.1333,74.08694 -22.0053,112.44699 0.086,38.38645 7.8607,76.59299 22.6529,112.26793 14.9839,35.60369 36.6876,67.9846 63.9201,95.03412 27.1916,27.0577 59.8385,48.7351 95.4416,63.39902 35.622,14.60287 74.0795,22.13645 112.447,22.00532 38.3865,-0.0858 76.6006,-7.86389 112.2679,-22.65286 35.5962,-14.98081 67.9846,-36.68761 95.0341,-63.92011 27.0655,-27.19464 48.7427,-59.84166 63.3991,-95.44163 14.5997,-35.62957 22.1333,-74.08695 22.0053,-112.447 -0.086,-38.38648 -7.8607,-76.59303 -22.6528,-112.26798 -14.984,-35.60369 -36.6876,-67.9846 -63.9202,-95.03406 -27.1914,-27.05798 -59.8385,-48.73515 -95.4416,-63.39905 -35.622,-14.60288 -74.0795,-22.13641 -112.4469,-22.00535 -38.3865,0.0859 -76.6007,7.86395 -112.268,22.65292 -35.5993,14.97326 -67.9952,36.68312 -95.0341,63.92004 z m 207.3377,-72.03432 c 36.4462,-0.12641 73.0159,7.02553 106.894,20.91201 33.8517,13.95062 64.889,34.55412 90.7237,60.27289 25.8772,25.69213 46.4928,56.44461 60.7549,90.32003 14.0661,33.95737 21.4442,70.23784 21.5254,106.7029 0.1371,36.45062 -7.0287,73.00841 -20.912,106.89401 -13.9431,33.84851 -34.5648,64.88464 -60.2729,90.72385 -25.6921,25.87713 -56.4446,46.49263 -90.3201,60.75484 -33.9573,14.06594 -70.2378,21.44427 -106.7029,21.52534 -36.4462,0.12641 -73.0159,-7.02552 -106.894,-20.91198 -33.8516,-13.95061 -64.889,-34.55415 -90.7237,-60.2729 -25.877,-25.69234 -46.4927,-56.44458 -60.7549,-90.32005 -14.066,-33.95731 -21.4443,-70.23783 -21.5254,-106.70291 -0.1371,-36.45059 7.0287,-73.00841 20.912,-106.89401 13.9431,-33.84851 34.5649,-64.88456 60.2729,-90.72384 25.6921,-25.87706 56.4446,-46.49264 90.3201,-60.75477 33.9573,-14.06601 70.2302,-21.44114 106.7029,-21.52541 z" />
    <path
       d="m 1260.2103,548.09017 c -14.598,35.48206 -22.1319,73.93948 -22.0491,112.43834 0.1465,38.50448 7.9034,76.91745 22.7013,112.30852 14.7691,35.43158 36.5733,67.75454 63.8916,95.05317 27.4683,27.15942 59.9115,48.76982 95.4225,63.33892 35.4763,14.59231 73.9337,22.12616 112.4383,22.04913 38.4987,-0.14066 76.9118,-7.89758 112.3085,-22.70132 35.4316,-14.76919 67.7603,-36.57906 95.0532,-63.89167 27.1537,-27.46247 48.7698,-59.91146 63.3389,-95.42236 14.5981,-35.48214 22.1319,-73.93952 22.0491,-112.43837 -0.1463,-38.50453 -7.9033,-76.91746 -22.7012,-112.30857 -14.7692,-35.43163 -36.5733,-67.75448 -63.8917,-95.05322 -27.4683,-27.15943 -59.9115,-48.76981 -95.4224,-63.33887 -35.4763,-14.59227 -73.9336,-22.12616 -112.4384,-22.04907 -38.4987,0.14064 -76.9117,7.89752 -112.3085,22.70133 -35.4315,14.76913 -67.7603,36.57906 -95.0531,63.8916 -27.1596,27.45669 -48.7814,59.9115 -63.339,95.42244 z M 1424.199,402.19434 c 33.6236,-14.06412 70.1466,-21.45121 106.76,-21.58638 36.6135,-0.0658 73.1728,7.09189 106.8832,20.96642 33.7391,13.83392 64.554,34.35604 90.6942,60.19491 25.9901,25.98977 46.6907,56.68502 60.7203,90.34332 14.0756,33.62345 21.4454,70.14061 21.5864,106.75979 0.072,36.60779 -7.1035,73.17303 -20.9665,106.88335 -13.8339,33.73909 -34.356,64.55402 -60.1949,90.69413 -25.9897,25.99021 -56.685,46.69076 -90.3433,60.72033 -33.6235,14.06405 -70.1464,21.45123 -106.7598,21.58639 -36.6136,0.0657 -73.173,-7.09192 -106.8833,-20.96641 -33.7392,-13.83397 -64.5541,-34.35606 -90.6942,-60.19499 -25.9902,-25.98972 -46.6908,-56.68499 -60.7203,-90.34324 -14.0757,-33.6235 -21.4454,-70.14071 -21.5863,-106.75981 -0.072,-36.60784 7.1034,-73.17302 20.9663,-106.88334 13.834,-33.73916 34.3561,-64.55403 60.195,-90.69421 25.9898,-25.99014 56.6792,-46.68494 90.3432,-60.72026 z"
       id="path7814"
       inkscape:connector-curvature="0"
       style="fill:none" />
    <path
       style="fill:none"
       inkscape:connector-curvature="0"
       id="path7824"
       d="m 1238.1788,660.50285 c 0.092,38.36764 7.8482,76.78074 22.6576,112.31735 14.8703,35.51745 36.7368,68.03797 63.9519,95.07211 27.204,27.0827 59.7179,48.60111 95.4034,63.36749 35.7709,14.58035 74.0144,22.13029 112.3976,22.00087 38.3601,-0.0946 76.7731,-7.85124 112.3174,-22.65753 35.5143,-14.8627 68.0348,-36.72919 95.072,-63.9519 27.083,-27.20374 48.6042,-59.72543 63.3675,-95.40349 14.5772,-35.76323 22.1303,-74.01433 22.0009,-112.3975 -0.091,-38.36765 -7.8482,-76.78073 -22.6575,-112.31739 -14.8704,-35.5174 -36.7368,-68.03792 -63.9519,-95.07208 -27.2038,-27.08298 -59.7179,-48.60108 -95.4035,-63.36748 -35.7709,-14.58032 -74.0143,-22.13031 -112.3975,-22.0009 -38.3601,0.0946 -76.7732,7.8513 -112.3174,22.65752 -35.5144,14.86277 -68.0349,36.72927 -95.072,63.9519 -27.083,27.20375 -48.6043,59.72551 -63.3675,95.4035 -14.5848,35.7602 -22.141,74.01882 -22.001,112.39753 z m 95.674,-197.54595 c 25.6816,-25.86091 56.5978,-46.66215 90.3724,-60.79841 33.8015,-14.07214 70.317,-21.45002 106.7709,-21.53197 36.4649,-0.1305 72.7876,7.03708 106.826,20.9057 33.9577,14.06536 64.829,34.50232 90.6711,60.2297 25.8712,25.67772 46.6547,56.59468 60.7985,90.37237 14.0753,33.79386 21.4393,70.32144 21.532,106.77084 0.1305,36.46499 -7.0371,72.78767 -20.9057,106.82603 -14.0654,33.95769 -34.5023,64.82909 -60.2297,90.67118 -25.6817,25.86098 -56.5978,46.66223 -90.3725,60.79849 -33.8013,14.0722 -70.3169,21.44997 -106.7708,21.53195 -36.4649,0.13052 -72.7876,-7.03702 -106.826,-20.90569 -33.9576,-14.06532 -64.8291,-34.50231 -90.6712,-60.22967 -25.8713,-25.67751 -46.6546,-56.5947 -60.7984,-90.37244 -14.0753,-33.79384 -21.4393,-70.32143 -21.532,-106.7708 -0.1306,-36.46499 7.0371,-72.78767 20.9058,-106.8261 14.0653,-33.95762 34.4991,-64.82145 60.2296,-90.67118 z" />
    <path
       d="m 1260.8427,772.7897 c 14.7673,35.41204 36.6336,67.93278 63.9149,95.09701 27.3303,27.12327 59.9774,48.80035 95.4663,63.36185 35.4974,14.61062 73.771,22.04856 112.3911,22.03463 38.6276,-0.21842 76.8492,-7.87837 112.2611,-22.68647 35.4039,-14.76727 67.9246,-36.63348 95.0971,-63.91491 27.1231,-27.32217 48.8003,-59.96925 63.3618,-95.46635 14.6105,-35.4973 22.0485,-73.77911 22.0346,-112.39094 -0.2184,-38.61944 -7.8783,-76.8493 -22.6866,-112.26124 -14.7672,-35.41205 -36.6334,-67.93271 -63.9148,-95.097 -27.3305,-27.12299 -59.9773,-48.8003 -95.4664,-63.36185 -35.4972,-14.61061 -73.7709,-22.0485 -112.3909,-22.03458 -38.6276,0.21844 -76.8493,7.87832 -112.2612,22.68649 -35.4038,14.7672 -67.9245,36.63348 -95.097,63.91485 -27.1232,27.32223 -48.8004,59.96918 -63.3619,95.46641 -14.6105,35.49731 -22.0484,73.77908 -22.0345,112.39092 0.2102,38.61947 7.8702,76.85748 22.6864,112.26118 z m 12.7937,-219.12143 c 13.8306,-33.72026 34.4327,-64.76934 60.2267,-90.75454 25.8429,-25.93654 56.7558,-46.72632 90.4034,-60.75239 33.6393,-14.07513 69.9401,-21.35318 106.6948,-21.56619 36.7552,-3.1e-4 73.0976,7.06694 106.818,20.9466 33.7284,13.82243 64.7612,34.43273 90.7545,60.2267 25.936,25.83522 46.7182,56.76406 60.7524,90.4034 14.0751,33.63929 21.3532,69.94006 21.5662,106.69473 4e-4,36.75535 -7.0669,73.09768 -20.9466,106.81809 -13.8306,33.72027 -34.4327,64.76935 -60.2267,90.75447 -25.8429,25.93661 -56.7558,46.72639 -90.4035,60.75247 -33.6393,14.07512 -69.9399,21.35322 -106.6947,21.56617 -36.7553,3.4e-4 -73.0976,-7.06696 -106.8181,-20.94662 -33.7283,-13.82231 -64.7611,-34.43273 -90.7544,-60.2267 -25.9362,-25.835 -46.7182,-56.76399 -60.7524,-90.4034 -14.0751,-33.63929 -21.3532,-69.94001 -21.5662,-106.69471 -3e-4,-36.75529 7.067,-73.08953 20.9466,-106.81808 z"
       id="path7834"
       inkscape:connector-curvature="0"
       style="fill:none" />
    <path
       style="fill:none"
       inkscape:connector-curvature="0"
       id="path7844"
       d="m 1324.7519,867.85613 c 27.1948,27.06533 59.8417,48.74268 95.4416,63.39902 35.6296,14.59976 74.087,22.13328 112.447,22.00533 38.3865,-0.0858 76.5931,-7.86072 112.268,-22.65282 35.6037,-14.98395 67.9845,-36.68754 95.0341,-63.92018 27.0579,-27.19137 48.7351,-59.83846 63.399,-95.44163 14.6029,-35.62195 22.1365,-74.0794 22.0054,-112.44693 -0.086,-38.38648 -7.8639,-76.60058 -22.653,-112.26798 -14.9807,-35.59614 -36.6875,-67.98453 -63.92,-95.03406 -27.1946,-27.06547 -59.8417,-48.74271 -95.4416,-63.39905 -35.6296,-14.59975 -74.087,-22.13328 -112.447,-22.00528 -38.3865,0.0858 -76.593,7.86068 -112.268,22.65278 -35.6037,14.98395 -67.9846,36.68761 -95.0341,63.92011 -27.058,27.19137 -48.7351,59.83853 -63.399,95.4417 -14.6029,35.62195 -22.1365,74.07939 -22.0054,112.44694 0.086,38.38646 7.8639,76.60058 22.6529,112.268 14.9733,35.59929 36.6832,67.99522 63.9201,95.03405 z m -72.0343,-207.3377 c -0.1265,-36.4462 7.0255,-73.01593 20.9119,-106.89405 13.9506,-33.85164 34.5542,-64.88899 60.273,-90.7237 25.6921,-25.87713 56.4446,-46.49278 90.32,-60.75491 33.9574,-14.06601 70.2379,-21.4442 106.7029,-21.52534 36.4506,-0.1371 73.0084,7.02866 106.894,20.91194 33.8485,13.94314 64.8847,34.56481 90.7238,60.27289 25.8771,25.69213 46.4927,56.44468 60.7548,90.3201 14.066,33.95737 21.4444,70.23784 21.5254,106.70298 0.1264,36.44612 -7.0255,73.01589 -20.912,106.89393 -13.9506,33.85165 -34.5541,64.88906 -60.2729,90.72378 -25.6921,25.87713 -56.4446,46.4927 -90.32,60.75491 -33.9574,14.06594 -70.2379,21.44424 -106.703,21.52531 -36.4505,0.13715 -73.0083,-7.02863 -106.894,-20.91198 -33.8485,-13.9431 -64.8846,-34.56483 -90.7237,-60.2729 -25.8769,-25.69234 -46.4927,-56.44459 -60.7549,-90.32005 -14.0659,-33.95732 -21.4411,-70.23032 -21.5253,-106.70291 z" />
    <path
       d="m 1420.1767,931.22915 c 35.4821,14.5981 73.9395,22.13195 112.4383,22.04913 38.5045,-0.14645 76.9175,-7.90335 112.3086,-22.70135 35.4316,-14.76905 67.7545,-36.57324 95.0532,-63.89153 27.1593,-27.46836 48.7698,-59.91146 63.3388,-95.4225 14.5924,-35.47633 22.1262,-73.93371 22.0492,-112.43837 -0.1407,-38.49867 -7.8975,-76.91168 -22.7013,-112.3085 -14.7692,-35.43156 -36.5791,-67.76033 -63.8916,-95.05315 -27.4625,-27.15365 -59.9115,-48.76981 -95.4225,-63.33893 -35.482,-14.59806 -73.9394,-22.13188 -112.4383,-22.04915 -38.5045,0.14645 -76.9174,7.90341 -112.3085,22.70133 -35.4317,14.7692 -67.7546,36.57324 -95.0533,63.89167 -27.1594,27.46829 -48.7698,59.91146 -63.3388,95.42237 -14.5923,35.47639 -22.1262,73.93372 -22.0492,112.43838 0.1407,38.49876 7.8976,76.91174 22.7013,112.30851 14.7692,35.43165 36.5791,67.76033 63.8917,95.05325 27.4567,27.15947 59.9115,48.7814 95.4224,63.33884 z M 1274.2809,767.24042 c -14.0641,-33.62346 -21.4512,-70.14642 -21.5864,-106.75981 -0.066,-36.61357 7.092,-73.17291 20.9664,-106.88326 13.834,-33.73916 34.3561,-64.55409 60.195,-90.6942 25.9897,-25.99022 56.685,-46.69076 90.3433,-60.72033 33.6235,-14.07565 70.1406,-21.4454 106.7598,-21.58639 36.6078,-0.0715 73.173,7.10349 106.8833,20.96642 33.7391,13.83399 64.5541,34.35604 90.6942,60.19498 25.9902,25.98971 46.6907,56.68502 60.7202,90.34325 14.0642,33.62355 21.4513,70.14647 21.5865,106.75987 0.066,36.6136 -7.092,73.17292 -20.9664,106.88327 -13.834,33.73916 -34.3561,64.55403 -60.195,90.69421 -25.9898,25.99014 -56.685,46.69075 -90.3433,60.72033 -33.6235,14.07564 -70.1407,21.44533 -106.7598,21.58637 -36.6078,0.0715 -73.173,-7.10351 -106.8834,-20.96648 -33.7391,-13.8339 -64.554,-34.35599 -90.6941,-60.19492 -25.9902,-25.98972 -46.685,-56.67921 -60.7203,-90.34331 z"
       id="path7854"
       inkscape:connector-curvature="0"
       style="fill:none" />
    <path
       style="fill:none"
       inkscape:connector-curvature="0"
       id="path7864"
       d="m 1532.5893,953.26067 c 38.3676,-0.0916 76.7806,-7.84815 112.3173,-22.6576 35.5175,-14.87028 68.038,-36.73677 95.0721,-63.95183 27.083,-27.20374 48.6011,-59.71793 63.3675,-95.40349 14.5803,-35.77087 22.1303,-74.01433 22.0009,-112.3975 -0.095,-38.36014 -7.8513,-76.77322 -22.6575,-112.31739 -14.8628,-35.51438 -36.7293,-68.0349 -63.952,-95.07215 -27.2037,-27.08291 -59.7253,-48.6041 -95.4034,-63.36741 -35.7633,-14.5773 -74.0143,-22.13031 -112.3975,-22.0009 -38.3676,0.0915 -76.7807,7.84821 -112.3174,22.65752 -35.5174,14.87035 -68.038,36.73677 -95.0721,63.9519 -27.0829,27.20375 -48.6011,59.71786 -63.3674,95.4035 -14.5804,35.7708 -22.1304,74.01434 -22.001,112.39753 0.095,38.3601 7.8513,76.77312 22.6576,112.31735 14.8628,35.51438 36.7293,68.0349 63.9518,95.07211 27.2041,27.0827 59.7255,48.60418 95.4035,63.36749 35.7602,14.58475 74.0188,22.14097 112.3976,22.00087 z m -197.5459,-95.67394 c -25.8607,-25.68199 -46.6623,-56.59784 -60.7984,-90.37244 -14.0722,-33.80138 -21.4501,-70.31695 -21.5321,-106.77079 -0.1305,-36.465 7.0371,-72.78765 20.9058,-106.82609 14.0653,-33.95761 34.5022,-64.82909 60.2296,-90.67118 25.6777,-25.87115 56.5947,-46.65464 90.3725,-60.79841 33.7938,-14.07529 70.3214,-21.43935 106.7708,-21.53197 36.465,-0.13056 72.7876,7.03708 106.826,20.90571 33.9577,14.06536 64.8291,34.50225 90.6712,60.22962 25.861,25.68171 46.6622,56.59785 60.7984,90.37244 14.0722,33.80137 21.45,70.31696 21.532,106.77084 0.1305,36.46499 -7.037,72.7876 -20.9057,106.82604 -14.0653,33.95762 -34.5023,64.82909 -60.2297,90.67118 -25.6777,25.87115 -56.5946,46.65465 -90.3724,60.79841 -33.7939,14.07529 -70.3214,21.43935 -106.7709,21.532 -36.4649,0.13052 -72.7875,-7.03701 -106.826,-20.90568 -33.9576,-14.06532 -64.8214,-34.49917 -90.6711,-60.22968 z" />
    <path
       d="m 1644.8762,930.59665 c 35.4119,-14.7673 67.9327,-36.63343 95.097,-63.91484 27.123,-27.33058 48.8003,-59.97746 63.3618,-95.46635 14.6106,-35.49737 22.0485,-73.77105 22.0346,-112.39108 -0.2184,-38.62757 -7.8783,-76.84916 -22.6865,-112.26117 -14.7672,-35.40385 -36.6334,-67.92451 -63.9148,-95.097 -27.3222,-27.12315 -59.9693,-48.80033 -95.4664,-63.36186 -35.4973,-14.61053 -73.7791,-22.04847 -112.3909,-22.03457 -38.6195,0.21842 -76.8493,7.87832 -112.2613,22.68656 -35.412,14.76723 -67.9327,36.63344 -95.097,63.91485 -27.123,27.3305 -48.8003,59.97738 -63.3618,95.46634 -14.6106,35.49723 -22.0485,73.77092 -22.0346,112.39096 0.2184,38.62765 7.8783,76.84928 22.6865,112.26118 14.7672,35.40384 36.6334,67.92459 63.9148,95.09701 27.3222,27.1233 59.9692,48.80037 95.4664,63.36184 35.4973,14.61063 73.7791,22.04849 112.3909,22.03457 38.6195,-0.21022 76.8575,-7.87009 112.2613,-22.68644 z m -219.1215,-12.7937 c -33.7202,-13.83052 -64.7693,-34.43265 -90.7545,-60.2267 -25.9362,-25.84321 -46.7263,-56.75578 -60.7524,-90.4034 -14.0751,-33.63929 -21.3532,-69.94001 -21.5662,-106.69471 -3e-4,-36.75529 7.067,-73.09771 20.9466,-106.81812 13.8224,-33.7283 34.4327,-64.76114 60.2267,-90.75446 25.8352,-25.93596 56.7641,-46.71822 90.4034,-60.7524 33.6393,-14.07513 69.9401,-21.35318 106.6947,-21.56618 36.7554,-3.9e-4 73.0977,7.06693 106.8181,20.94659 33.7203,13.83058 64.7694,34.43271 90.7545,60.2267 25.9359,25.84363 46.7264,56.75584 60.7524,90.4034 14.0751,33.63929 21.3532,69.93999 21.5662,106.69473 4e-4,36.75535 -7.067,73.09768 -20.9466,106.81809 -13.8223,33.72838 -34.4328,64.76115 -60.2267,90.75447 -25.8353,25.93603 -56.7641,46.71821 -90.4034,60.7524 -33.6393,14.07513 -69.94,21.35326 -106.6948,21.5662 -36.7553,3.5e-4 -73.0894,-7.06697 -106.818,-20.94661 z"
       id="path7874"
       inkscape:connector-curvature="0"
       style="fill:none" />
    <path
       style="fill:none"
       inkscape:connector-curvature="0"
       id="path7884"
       d="m 1739.9425,866.68755 c 27.0655,-27.19464 48.7427,-59.84166 63.399,-95.44163 14.5998,-35.62957 22.1333,-74.08695 22.0054,-112.44693 -0.086,-38.38648 -7.8608,-76.5931 -22.6529,-112.26805 -14.9839,-35.60369 -36.6875,-67.98453 -63.9201,-95.03399 -27.1913,-27.05798 -59.8384,-48.73515 -95.4416,-63.39905 -35.622,-14.60295 -74.0794,-22.13648 -112.4469,-22.00535 -38.3865,0.0858 -76.6006,7.86388 -112.2681,22.65285 -35.596,14.98082 -67.9845,36.68754 -95.034,63.92004 -27.0655,27.19465 -48.7427,59.84173 -63.3991,95.44177 -14.5997,35.62951 -22.1332,74.08693 -22.0053,112.44691 0.086,38.38646 7.8608,76.59307 22.6529,112.26801 14.9839,35.60369 36.6875,67.98453 63.92,95.03404 27.1917,27.05771 59.8386,48.7351 95.4417,63.39903 35.622,14.60293 74.0794,22.13645 112.4469,22.00532 38.3865,-0.0858 76.6006,-7.86389 112.268,-22.65279 35.5993,-14.97326 67.9953,-36.68326 95.0341,-63.92018 z m -207.3377,72.03443 c -36.4462,0.12639 -73.0159,-7.02554 -106.894,-20.91206 -33.8517,-13.9506 -64.889,-34.55407 -90.7238,-60.27289 -25.8769,-25.69234 -46.4926,-56.44459 -60.7549,-90.32005 -14.0659,-33.95732 -21.4442,-70.23784 -21.5253,-106.70292 -0.1371,-36.4506 7.0287,-73.00829 20.912,-106.89396 13.9431,-33.84858 34.5648,-64.88464 60.2729,-90.72377 25.6922,-25.87714 56.4446,-46.49278 90.3201,-60.75492 33.9573,-14.066 70.2379,-21.44426 106.7029,-21.5254 36.4462,-0.12634 73.0159,7.02552 106.894,20.91201 33.8517,13.95069 64.889,34.55412 90.7238,60.27296 25.8771,25.69206 46.4926,56.44461 60.7548,90.31995 14.066,33.95745 21.4443,70.23792 21.5254,106.70305 0.1371,36.45048 -7.0287,73.00827 -20.912,106.89394 -13.9431,33.84858 -34.5648,64.88464 -60.2729,90.72377 -25.6922,25.87714 -56.4447,46.49271 -90.3201,60.75492 -33.9574,14.06593 -70.2303,21.44105 -106.7029,21.52537 z" />
    <path
       d="m 1803.3156,771.26282 c 14.5981,-35.48213 22.1319,-73.93951 22.0491,-112.43836 -0.1464,-38.50446 -7.9033,-76.91746 -22.7013,-112.3085 -14.7691,-35.4317 -36.5733,-67.75455 -63.8916,-95.05329 -27.4684,-27.15936 -59.9115,-48.76981 -95.4225,-63.3388 -35.4763,-14.59234 -73.9336,-22.12616 -112.4383,-22.04914 -38.4987,0.14064 -76.9117,7.89752 -112.3085,22.70133 -35.4316,14.76913 -67.7603,36.57906 -95.0532,63.8916 -27.1537,27.46254 -48.7698,59.91139 -63.3389,95.42244 -14.5981,35.48206 -22.1319,73.93948 -22.0491,112.43834 0.1464,38.50448 7.9033,76.91745 22.7013,112.30853 14.7691,35.43157 36.5732,67.75453 63.8916,95.05317 27.4683,27.15941 59.9114,48.76981 95.4224,63.33891 35.4764,14.59232 73.9337,22.12617 112.4384,22.04913 38.4987,-0.14066 76.9117,-7.89758 112.3085,-22.70132 35.4316,-14.7692 67.7603,-36.57906 95.0532,-63.89167 27.1595,-27.45662 48.7814,-59.9115 63.3389,-95.42237 z m -163.9888,145.89576 c -33.6235,14.06419 -70.1464,21.45123 -106.7598,21.58639 -36.6135,0.0658 -73.1729,-7.09193 -106.8833,-20.9664 -33.7392,-13.83398 -64.554,-34.35607 -90.6941,-60.19492 -25.9902,-25.98972 -46.6908,-56.68499 -60.7203,-90.34332 -14.0757,-33.62344 -21.4454,-70.14063 -21.5864,-106.7598 -0.072,-36.60778 7.1034,-73.17297 20.9664,-106.88329 13.8339,-33.73922 34.3561,-64.55409 60.195,-90.6942 25.9897,-25.99021 56.6849,-46.69083 90.3432,-60.72026 33.6235,-14.06419 70.1465,-21.45129 106.7599,-21.58645 36.6136,-0.0657 73.1729,7.09196 106.8833,20.96641 33.7391,13.834 64.554,34.35612 90.6942,60.19499 25.99,25.9897 46.6907,56.68494 60.7202,90.34325 14.0757,33.62344 21.4454,70.14075 21.5864,106.75979 0.072,36.60778 -7.1035,73.17303 -20.9665,106.88335 -13.8338,33.73915 -34.3559,64.55402 -60.1949,90.69413 -25.9897,25.99021 -56.6791,46.68501 -90.3433,60.72033 z"
       id="path7894"
       inkscape:connector-curvature="0"
       style="fill:none" />
    <path
       style="fill:none"
       inkscape:connector-curvature="0"
       id="path7904"
       d="m 1825.3471,658.85025 c -0.091,-38.36765 -7.8482,-76.78073 -22.6576,-112.31732 -14.8703,-35.51747 -36.7367,-68.03799 -63.9518,-95.07215 -27.2038,-27.08298 -59.7179,-48.60108 -95.4035,-63.36748 -35.7709,-14.58032 -74.0143,-22.13031 -112.3975,-22.0009 -38.3601,0.0946 -76.7732,7.8513 -112.3174,22.65752 -35.5144,14.86277 -68.0349,36.72927 -95.0721,63.95197 -27.0829,27.20368 -48.6042,59.72544 -63.3674,95.40343 -14.5773,35.76329 -22.1304,74.01436 -22.001,112.39755 0.091,38.36763 7.8482,76.78073 22.6576,112.31734 14.8703,35.51744 36.7368,68.03797 63.9519,95.0721 27.204,27.0827 59.7179,48.60112 95.4034,63.36749 35.7709,14.58035 74.0144,22.1303 112.3976,22.00088 38.3601,-0.0946 76.7731,-7.85125 112.3174,-22.65754 35.5143,-14.8627 68.0348,-36.72919 95.072,-63.9519 27.083,-27.20374 48.6042,-59.72543 63.3675,-95.40349 14.5847,-35.76014 22.141,-74.01881 22.0009,-112.3975 z m -95.6739,197.54592 c -25.6817,25.86097 -56.5979,46.66222 -90.3725,60.79841 -33.8014,14.07213 -70.3169,21.45003 -106.7708,21.532 -36.465,0.13052 -72.7877,-7.03709 -106.8261,-20.90569 -33.9576,-14.06539 -64.829,-34.5023 -90.6711,-60.22967 -25.8714,-25.67751 -46.6546,-56.5947 -60.7984,-90.37244 -14.0753,-33.79384 -21.4394,-70.32143 -21.532,-106.77079 -0.1306,-36.465 7.037,-72.78765 20.9057,-106.82609 14.0653,-33.95762 34.5023,-64.82909 60.2296,-90.67118 25.6818,-25.86098 56.5979,-46.66222 90.3725,-60.79841 33.8014,-14.0722 70.3169,-21.45001 106.7708,-21.53197 36.465,-0.13057 72.7876,7.03701 106.826,20.9057 33.9577,14.06529 64.8291,34.50226 90.6712,60.22963 25.8712,25.67772 46.6547,56.59468 60.7984,90.37244 14.0753,33.79386 21.4394,70.32144 21.532,106.77084 0.1306,36.46499 -7.037,72.7876 -20.9057,106.82603 -14.0653,33.95762 -34.4992,64.82145 -60.2296,90.67119 z" />
    <path
       d="m 1802.6831,546.56335 c -14.7672,-35.41205 -36.6335,-67.93278 -63.9148,-95.097 -27.3306,-27.12306 -59.9774,-48.80037 -95.4664,-63.36185 -35.4973,-14.61068 -73.771,-22.04857 -112.391,-22.03465 -38.6276,0.21844 -76.8492,7.87839 -112.2612,22.68649 -35.4038,14.7672 -67.9245,36.63348 -95.097,63.91485 -27.1232,27.32223 -48.8003,59.96925 -63.3619,95.46641 -14.6105,35.49731 -22.0484,73.77908 -22.0345,112.39092 0.2184,38.61946 7.8783,76.84928 22.6865,112.26125 14.7673,35.41203 36.6335,67.93271 63.9149,95.09701 27.3302,27.1232 59.9773,48.80028 95.4663,63.36185 35.4973,14.61055 73.7709,22.04849 112.391,22.03456 38.6276,-0.21842 76.8492,-7.8783 112.2611,-22.68647 35.4039,-14.76727 67.9246,-36.63348 95.0971,-63.91491 27.1231,-27.32217 48.8004,-59.96918 63.3618,-95.46635 14.6105,-35.4973 22.0485,-73.77911 22.0346,-112.39094 -0.2102,-38.61946 -7.8702,-76.85746 -22.6865,-112.26117 z m -12.7936,219.12144 c -13.8306,33.72027 -34.4327,64.76935 -60.2267,90.75447 -25.8437,25.93591 -56.7559,46.72639 -90.4034,60.7524 -33.6393,14.07512 -69.9401,21.35319 -106.6948,21.56621 -36.7553,3.4e-4 -73.0976,-7.06696 -106.8181,-20.94662 -33.7284,-13.82238 -64.7611,-34.43273 -90.7544,-60.2267 -25.9363,-25.83507 -46.7182,-56.76405 -60.7524,-90.4034 -14.0751,-33.63928 -21.3532,-69.94001 -21.5662,-106.69471 -4e-4,-36.75536 7.0669,-73.09771 20.9466,-106.81812 13.8305,-33.72019 34.4326,-64.76928 60.2267,-90.75447 25.8436,-25.93584 56.7558,-46.72639 90.4034,-60.7524 33.6393,-14.07512 69.94,-21.35324 106.6947,-21.56618 36.7554,-3.8e-4 73.0977,7.06694 106.8181,20.9466 33.7284,13.82228 64.7612,34.43273 90.7545,60.2267 25.9359,25.83521 46.7181,56.76399 60.7524,90.4034 14.0751,33.63929 21.3532,69.93999 21.5662,106.69472 3e-4,36.75529 -7.067,73.08949 -20.9466,106.8181 z"
       id="path7914"
       inkscape:connector-curvature="0"
       style="fill:none" />
    <path
       style="fill:none"
       inkscape:connector-curvature="0"
       id="path7924"
       d="m 1738.774,451.49688 c -27.1946,-27.0654 -59.8417,-48.74257 -95.4417,-63.39898 -35.6295,-14.59982 -74.0869,-22.13328 -112.4469,-22.00535 -38.3865,0.0858 -76.5931,7.86075 -112.2679,22.65285 -35.6037,14.98395 -67.9846,36.68761 -95.0342,63.92011 -27.0579,27.19137 -48.735,59.83853 -63.399,95.44163 -14.603,35.62202 -22.1364,74.07948 -22.0054,112.44696 0.086,38.38645 7.864,76.60064 22.6529,112.26801 14.9808,35.59611 36.6876,67.98453 63.9201,95.03403 27.1948,27.06534 59.8417,48.74269 95.4417,63.3991 35.6295,14.59969 74.087,22.13328 112.447,22.00533 38.3863,-0.0859 76.593,-7.86081 112.2679,-22.65291 35.6037,-14.98395 67.9845,-36.68754 95.0341,-63.92004 27.0579,-27.19137 48.735,-59.83853 63.399,-95.44177 14.6029,-35.62195 22.1364,-74.07932 22.0054,-112.44693 -0.086,-38.38641 -7.864,-76.60051 -22.653,-112.26798 -14.9732,-35.59927 -36.6831,-67.99522 -63.92,-95.03406 z m 72.0343,207.33772 c 0.1264,36.44619 -7.0255,73.01589 -20.9119,106.89401 -13.9507,33.85171 -34.5542,64.88899 -60.273,90.72384 -25.6921,25.87714 -56.4446,46.49264 -90.3201,60.75485 -33.9573,14.06593 -70.2377,21.44426 -106.7029,21.52533 -36.4505,0.13715 -73.0083,-7.0287 -106.8939,-20.91199 -33.8486,-13.94309 -64.8846,-34.56482 -90.7238,-60.27289 -25.8769,-25.69234 -46.4927,-56.44466 -60.7549,-90.32005 -14.066,-33.95739 -21.4442,-70.23783 -21.5253,-106.70292 -0.1264,-36.44618 7.0255,-73.01587 20.9119,-106.89399 13.9507,-33.85171 34.5542,-64.88899 60.273,-90.72384 25.6921,-25.87714 56.4446,-46.49264 90.3201,-60.75485 33.9573,-14.06593 70.2377,-21.44426 106.7029,-21.52533 36.4505,-0.13717 73.0083,7.02859 106.8939,20.91201 33.8486,13.94306 64.8846,34.56481 90.7238,60.27289 25.8771,25.69213 46.4927,56.44454 60.7549,90.32003 14.0659,33.9573 21.4411,70.23028 21.5253,106.7029 z" />
    <path
       d="m 1738.774,451.49688 c -27.1946,-27.0654 -59.8417,-48.74257 -95.4417,-63.39898 -35.6295,-14.59982 -74.0869,-22.13328 -112.4469,-22.00535 -38.3865,0.0858 -76.5931,7.86075 -112.2679,22.65285 -35.6037,14.98395 -67.9846,36.68761 -95.0342,63.92011 -27.0579,27.19137 -48.735,59.83853 -63.399,95.44163 -14.603,35.62202 -22.1364,74.07948 -22.0054,112.44696 0.086,38.38645 7.864,76.60064 22.6529,112.26801 14.9808,35.59611 36.6876,67.98453 63.9201,95.03403 27.1948,27.06534 59.8417,48.74269 95.4417,63.3991 35.6295,14.59969 74.087,22.13328 112.447,22.00533 38.3863,-0.0859 76.593,-7.86081 112.2679,-22.65291 35.6037,-14.98395 67.9845,-36.68754 95.0341,-63.92004 27.0579,-27.19137 48.735,-59.83853 63.399,-95.44177 14.6029,-35.62195 22.1364,-74.07932 22.0054,-112.44693 -0.086,-38.38641 -7.864,-76.60051 -22.653,-112.26798 -14.9732,-35.59927 -36.6831,-67.99522 -63.92,-95.03406 z m 72.0343,207.33772 c 0.1264,36.44619 -7.0255,73.01589 -20.9119,106.89401 -13.9507,33.85171 -34.5542,64.88899 -60.273,90.72384 -25.6921,25.87714 -56.4446,46.49264 -90.3201,60.75485 -33.9573,14.06593 -70.2377,21.44426 -106.7029,21.52533 -36.4505,0.13715 -73.0083,-7.0287 -106.8939,-20.91199 -33.8486,-13.94309 -64.8846,-34.56482 -90.7238,-60.27289 -25.8769,-25.69234 -46.4927,-56.44466 -60.7549,-90.32005 -14.066,-33.95739 -21.4442,-70.23783 -21.5253,-106.70292 -0.1264,-36.44618 7.0255,-73.01587 20.9119,-106.89399 13.9507,-33.85171 34.5542,-64.88899 60.273,-90.72384 25.6921,-25.87714 56.4446,-46.49264 90.3201,-60.75485 33.9573,-14.06593 70.2377,-21.44426 106.7029,-21.52533 36.4505,-0.13717 73.0083,7.02859 106.8939,20.91201 33.8486,13.94306 64.8846,34.56481 90.7238,60.27289 25.8771,25.69213 46.4927,56.44454 60.7549,90.32003 14.0659,33.9573 21.4411,70.23028 21.5253,106.7029 z"
       id="path7934"
       inkscape:connector-curvature="0"
       style="fill:none" />
    <path
       style="fill:none"
       inkscape:connector-curvature="0"
       id="path6681"
       d="m 1986.5117,1051.5654 c -23.4294,-30.3832 -52.9675,-56.1365 -86.3499,-75.31417 -33.419,-19.12542 -70.5641,-31.61415 -108.6127,-36.49431 -38.0691,-4.92535 -76.9637,-2.20395 -114.2642,7.80517 -37.2549,10.20854 -72.1917,27.49988 -102.5643,50.9688 -30.3754,23.42721 -56.1287,52.96531 -75.3143,86.34991 -19.1275,33.4112 -31.6163,70.5563 -36.4943,108.6127 -4.9254,38.0693 -2.2018,76.9717 7.8051,114.2644 10.2064,37.247 27.4999,72.1916 50.9688,102.5642 23.4294,30.3834 52.9675,56.1366 86.3499,75.3143 33.4191,19.1254 70.5641,31.6142 108.6127,36.4944 38.0693,4.9253 76.9638,2.2039 114.2643,-7.8052 37.2549,-10.2086 72.1916,-27.4999 102.5643,-50.9688 30.3755,-23.4272 56.1286,-52.9654 75.3142,-86.3499 19.1276,-33.4112 31.6164,-70.5563 36.4944,-108.6127 4.9254,-38.0693 2.2018,-76.9718 -7.8052,-114.2644 -10.1985,-37.2491 -27.4942,-72.2017 -50.9688,-102.5643 z m 44.3551,214.9665 c -4.6319,36.1509 -16.4958,71.4742 -34.6855,103.2499 -18.2499,31.7412 -42.7283,59.8237 -71.5992,82.0804 -28.85,22.3021 -62.0302,38.7275 -97.4773,48.446 -35.5029,9.5133 -72.4361,12.0929 -108.5998,7.4137 -36.1566,-4.6218 -71.4663,-16.498 -103.2499,-34.6855 -31.739,-18.242 -59.8179,-42.7383 -82.0804,-71.5992 -22.302,-28.8501 -38.7274,-62.0302 -48.446,-97.4774 -9.5133,-35.5028 -12.0929,-72.436 -7.4137,-108.5997 4.6319,-36.1509 16.496,-71.4743 34.6856,-103.2499 18.2499,-31.7412 42.7282,-59.8238 71.5991,-82.0805 28.8502,-22.302 62.0302,-38.72739 97.4775,-48.44595 35.5028,-9.51338 72.4359,-12.09297 108.5996,-7.41375 36.1566,4.62182 71.4664,16.49808 103.2499,34.68553 31.7391,18.24197 59.8179,42.73827 82.0804,71.59917 22.3021,28.8501 38.7275,62.0302 48.4461,97.4774 9.5133,35.5029 12.0907,72.4282 7.4136,108.5998 z" />
    <path
       sodipodi:type="arc"
       style="fill:#f7a3a3;fill-opacity:1;stroke:none"
       id="path3000"
       sodipodi:cx="395.71429"
       sodipodi:cy="248.57143"
       sodipodi:rx="255.71428"
       sodipodi:ry="255.71428"
       d="m 651.42857,248.57143 c 0,141.22709 -114.48718,255.71428 -255.71428,255.71428 -141.22709,0 -255.71427,-114.48719 -255.71427,-255.71428 0,-141.2271 114.48718,-255.7142828 255.71427,-255.7142828 141.2271,0 255.71428,114.4871828 255.71428,255.7142828 z"
       transform="matrix(1.0011173,0,0,1.0011173,53.843574,478.51302)" />
    <g
       id="g3958"
       transform="matrix(0.93805742,0,0,0.93805742,85.877808,170.67787)">
      <g
         id="g10615"
         transform="matrix(0.20653694,-0.20773911,0.20773911,0.20653694,-149.03343,558.82823)">
        <path
           inkscape:connector-curvature="0"
           id="path10617"
           d="m 1447.1219,1362.8058 c -125.9209,0 -228.0001,102.0791 -228.0001,228 0,125.921 102.0792,228 228.0001,228 125.9209,10e-5 228,-102.079 228,-228 0,-125.9209 -102.0791,-228 -228,-228 z m 0,127.2188 c 55.6722,0 100.8125,45.1091 100.8125,100.7812 0,55.6722 -45.1403,100.8126 -100.8125,100.8126 -55.6722,0 -100.7813,-45.1404 -100.7813,-100.8126 0,-55.6721 45.1091,-100.7812 100.7813,-100.7812 z"
           style="fill:#ff7e00;fill-opacity:0.98039216;stroke:none" />
        <g
           transform="translate(248.90159,-65.053824)"
           id="g10619">
          <path
             style="fill:#ff7e00;fill-opacity:0.98039216;stroke:none"
             d="m 1228.4669,1890.1161 c -4.7852,17.6784 -8.7781,32.2086 -8.8727,32.2894 -0.1989,0.1696 -41.1835,-0.1251 -41.4093,-0.3028 -0.083,-0.065 -4.9298,-14.9111 -10.0492,-32.3754 l -9.3083,-31.7535 39.1699,0 39.17,0 z"
             id="path10621"
             inkscape:connector-curvature="0"
             sodipodi:nodetypes="sccscccs" />
          <path
             sodipodi:nodetypes="sccscccs"
             inkscape:connector-curvature="0"
             id="path10623"
             d="m 1167.5278,1421.6031 c 4.7852,-17.6784 8.7781,-32.2086 8.8727,-32.2894 0.1989,-0.1696 41.1835,0.1251 41.4093,0.3028 0.083,0.065 4.9298,14.9111 10.0492,32.3754 l 9.3083,31.7535 -39.17,0 -39.1699,0 z"
             style="fill:#ff7e00;fill-opacity:0.98039216;stroke:none" />
          <path
             sodipodi:nodetypes="sccscccs"
             inkscape:connector-curvature="0"
             id="path10625"
             d="m 1306.7498,1865.5675 c 1.5497,18.2489 2.7673,33.2685 2.706,33.3768 -0.1289,0.2274 -38.7426,13.968 -39.0156,13.8782 -0.1002,-0.033 -9.7323,-12.3257 -20.5161,-26.9859 l -19.6073,-26.6549 36.8076,-13.3969 36.8078,-13.3969 z"
             style="fill:#ff7e00;fill-opacity:0.98039216;stroke:none" />
          <path
             style="fill:#ff7e00;fill-opacity:0.98039216;stroke:none"
             d="m 1089.2449,1446.1517 c -1.5498,-18.2489 -2.7673,-33.2685 -2.7061,-33.3767 0.1289,-0.2274 38.7427,-13.9681 39.0156,-13.8783 0.1002,0.033 9.7324,12.3257 20.5162,26.9859 l 19.6073,26.6549 -36.8077,13.3969 -36.8077,13.3969 z"
             id="path10627"
             inkscape:connector-curvature="0"
             sodipodi:nodetypes="sccscccs" />
          <path
             style="fill:#ff7e00;fill-opacity:0.98039216;stroke:none"
             d="m 1371.9032,1815.6552 c 7.6978,16.6184 13.9789,30.3157 13.9584,30.4384 -0.043,0.2578 -31.6288,26.3764 -31.916,26.3854 -0.1054,0 -13.3611,-8.2537 -28.5086,-18.3415 l -27.5414,-18.3413 30.0059,-25.1779 30.006,-25.178 z"
             id="path10629"
             inkscape:connector-curvature="0"
             sodipodi:nodetypes="sccscccs" />
          <path
             sodipodi:nodetypes="sccscccs"
             inkscape:connector-curvature="0"
             id="path10631"
             d="m 1024.0668,1495.9244 c -7.6978,-16.6183 -13.9789,-30.3157 -13.9583,-30.4384 0.043,-0.2578 31.6288,-26.3764 31.916,-26.3854 0.1053,0 13.3611,8.2537 28.5086,18.3415 l 27.5413,18.3413 -30.0059,25.1779 -30.0059,25.178 z"
             style="fill:#ff7e00;fill-opacity:0.98039216;stroke:none" />
          <path
             sodipodi:nodetypes="sccscccs"
             inkscape:connector-curvature="0"
             id="path10633"
             d="m 1416.2251,1746.3719 c 12.9173,12.9833 23.5044,23.7064 23.5271,23.8287 0.047,0.2571 -20.7001,35.6034 -20.9669,35.7101 -0.098,0.039 -15.3783,-3.1862 -33.0625,-7.4848 l -32.1535,-7.8156 19.585,-33.9221 19.5849,-33.9222 z"
             style="fill:#ff7e00;fill-opacity:0.98039216;stroke:none" />
          <path
             style="fill:#ff7e00;fill-opacity:0.98039216;stroke:none"
             d="m 980.01135,1564.8902 c -12.91735,-12.9833 -23.50442,-23.7063 -23.5271,-23.8286 -0.0474,-0.2571 20.70009,-35.6034 20.96689,-35.7101 0.0978,-0.039 15.37829,3.1862 33.06256,7.4848 l 32.1534,7.8155 -19.5849,33.9222 -19.585,33.9222 z"
             id="path10635"
             inkscape:connector-curvature="0"
             sodipodi:nodetypes="sccscccs" />
          <path
             style="fill:#ff7e00;fill-opacity:0.98039216;stroke:none"
             d="m 1434.2089,1666.2847 c 16.5789,7.7823 30.195,14.2377 30.2581,14.3449 0.1325,0.2253 -7.2746,40.5361 -7.4888,40.7276 -0.079,0.071 -15.5407,2.2656 -33.6286,4.2746 l -32.8875,3.653 6.8018,-38.5749 6.8018,-38.5749 z"
             id="path10637"
             inkscape:connector-curvature="0"
             sodipodi:nodetypes="sccscccs" />
          <path
             sodipodi:nodetypes="sccscccs"
             inkscape:connector-curvature="0"
             id="path10639"
             d="m 962.23165,1644.9416 c -16.57889,-7.7823 -30.19498,-14.2377 -30.25813,-14.3449 -0.13248,-0.2253 7.27464,-40.5361 7.48885,-40.7276 0.0784,-0.071 15.54062,-2.2657 33.62857,-4.2746 l 32.88746,-3.653 -6.80178,38.5749 -6.8018,38.5749 z"
             style="fill:#ff7e00;fill-opacity:0.98039216;stroke:none" />
          <path
             sodipodi:nodetypes="sccscccs"
             inkscape:connector-curvature="0"
             id="path10641"
             d="m 1423.6624,1584.922 c 18.2407,1.6427 33.2435,3.0518 33.3395,3.1309 0.2016,0.1665 7.0283,40.5796 6.8925,40.8328 -0.05,0.093 -13.8285,7.4442 -30.1385,15.5185 l -29.6548,14.6808 -6.8017,-38.5748 -6.8018,-38.5749 z"
             style="fill:#ff7e00;fill-opacity:0.98039216;stroke:none" />
          <path
             style="fill:#ff7e00;fill-opacity:0.98039216;stroke:none"
             d="m 972.84905,1726.2917 c -18.24077,-1.6426 -33.24358,-3.0517 -33.33958,-3.1309 -0.20156,-0.1664 -7.02824,-40.5795 -6.89245,-40.8327 0.0496,-0.093 13.82852,-7.4442 30.13852,-15.5185 l 29.65472,-14.6808 6.80179,38.5748 6.80175,38.5749 z"
             id="path10643"
             inkscape:connector-curvature="0"
             sodipodi:nodetypes="sccscccs" />
          <path
             style="fill:#ff7e00;fill-opacity:0.98039216;stroke:none"
             d="m 1385.8576,1512.0975 c 17.7025,-4.6951 32.2825,-8.5023 32.3998,-8.4608 0.2463,0.087 20.4834,35.7285 20.4424,36.0129 -0.015,0.1044 -10.4485,11.7249 -23.0133,24.8906 l -22.8452,23.938 -19.585,-33.9222 -19.585,-33.9222 z"
             id="path10645"
             inkscape:connector-curvature="0"
             sodipodi:nodetypes="sccscccs" />
          <path
             sodipodi:nodetypes="sccscccs"
             inkscape:connector-curvature="0"
             id="path10647"
             d="m 1010.5829,1799.1288 c -17.7025,4.6951 -32.28247,8.5022 -32.39975,8.4607 -0.24632,-0.087 -20.48341,-35.7285 -20.44241,-36.0129 0.0148,-0.1044 10.44849,-11.7249 23.01332,-24.8906 l 22.84514,-23.938 19.585,33.9222 19.585,33.9222 z"
             style="fill:#ff7e00;fill-opacity:0.98039216;stroke:none" />
          <path
             sodipodi:nodetypes="sccscccs"
             inkscape:connector-curvature="0"
             id="path10649"
             d="m 1325.3544,1456.5948 c 15.0291,-10.4666 27.4277,-19.0308 27.5521,-19.0319 0.2614,0 31.468,26.5681 31.5267,26.8494 0.022,0.1031 -5.8082,14.5913 -13.1123,31.2604 l -13.2802,30.3079 -30.0059,-25.1779 -30.006,-25.178 z"
             style="fill:#ff7e00;fill-opacity:0.98039216;stroke:none" />
          <path
             style="fill:#ff7e00;fill-opacity:0.98039216;stroke:none"
             d="m 1070.8821,1854.6674 c -15.0292,10.4666 -27.4277,19.0308 -27.5521,19.0319 -0.2614,0 -31.468,-26.5681 -31.5268,-26.8493 -0.022,-0.1032 5.8083,-14.5914 13.1124,-31.2605 l 13.2802,-30.3079 30.0059,25.1779 30.0059,25.178 z"
             id="path10651"
             inkscape:connector-curvature="0"
             sodipodi:nodetypes="sccscccs" />
          <path
             style="fill:#ff7e00;fill-opacity:0.98039216;stroke:none"
             d="m 1249.4272,1424.9772 c 10.543,-14.9756 19.2648,-27.2639 19.3813,-27.3075 0.2449,-0.091 38.657,14.2032 38.8084,14.4474 0.056,0.089 -0.4674,15.6979 -1.6299,33.8599 l -2.1134,33.0222 -36.8076,-13.3969 -36.8078,-13.3969 z"
             id="path10653"
             inkscape:connector-curvature="0"
             sodipodi:nodetypes="sccscccs" />
          <path
             sodipodi:nodetypes="sccscccs"
             inkscape:connector-curvature="0"
             id="path10655"
             d="m 1146.4503,1886.0778 c -10.5429,14.9756 -19.2647,27.2639 -19.3812,27.3075 -0.2449,0.091 -38.657,-14.2032 -38.8084,-14.4474 -0.056,-0.09 0.4674,-15.6979 1.6298,-33.8599 l 2.1134,-33.0222 36.8077,13.3969 36.8078,13.3969 z"
             style="fill:#ff7e00;fill-opacity:0.98039216;stroke:none" />
        </g>
      </g>
      <g
         transform="matrix(0.22314663,-0.2244455,0.2244455,0.22314663,59.957755,565.3237)"
         id="g10100">
        <g
           transform="matrix(0.96809589,-0.25058002,0.25058002,0.96809589,-407.95427,139.26679)"
           id="g10131">
          <path
             inkscape:connector-curvature="0"
             id="path9788"
             d="m 431.11982,698.19061 c -92.96972,0.1788 -180.16602,57.6196 -213.8125,150.0626 -43.06749,118.3269 17.92304,249.18249 136.25,292.24999 118.32696,43.0674 249.18255,-17.9543 292.24995,-136.2813 43.0675,-118.32699 -17.9542,-249.15129 -136.2812,-292.21869 -25.88402,-9.4211 -52.37473,-13.8626 -78.40625,-13.8126 z m 0.4375,192.6876 c 19.52621,0 35.34375,15.8487 35.34375,35.375 0,19.5262 -15.81754,35.3437 -35.34375,35.3437 -19.52621,0 -35.375,-15.8175 -35.375,-35.3437 0,-19.5263 15.84879,-35.375 35.375,-35.375 z"
             style="fill:#ff7e00;fill-opacity:0.98039216;stroke:none" />
          <g
             id="g10086">
            <path
               style="fill:#ff7e00;fill-opacity:0.98039216;stroke:none"
               d="m 483.33642,695.8037 c 10.54298,-14.97563 19.2647,-27.2639 19.38123,-27.30747 0.24492,-0.0913 38.65703,14.20314 38.80843,14.44735 0.0558,0.0895 -0.4674,15.69794 -1.62988,33.85995 l -2.11339,33.02216 -36.80767,-13.3969 -36.80774,-13.39692 z"
               id="path9790"
               inkscape:connector-curvature="0"
               sodipodi:nodetypes="sccscccs" />
            <path
               sodipodi:nodetypes="sccscccs"
               inkscape:connector-curvature="0"
               id="path9792"
               d="m 380.35955,1156.9043 c -10.54298,14.9756 -19.2647,27.2639 -19.38123,27.3075 -0.24491,0.091 -38.65705,-14.2032 -38.80845,-14.4474 -0.0558,-0.09 0.4674,-15.6979 1.62988,-33.8599 l 2.11339,-33.0222 36.80769,13.3969 36.80774,13.3969 z"
               style="fill:#ff7e00;fill-opacity:0.98039216;stroke:none" />
            <path
               sodipodi:nodetypes="sccscccs"
               inkscape:connector-curvature="0"
               id="path10003"
               d="m 361.13573,700.84537 c 1.64268,-18.24077 3.05177,-33.24358 3.1309,-33.33958 0.16643,-0.20156 40.57954,-7.02823 40.83276,-6.89244 0.093,0.0496 7.4442,13.82851 15.51846,30.13852 l 14.68083,29.65472 -38.57482,6.80178 -38.5749,6.8018 z"
               style="fill:#ff7e00;fill-opacity:0.98039216;stroke:none" />
            <path
               style="fill:#ff7e00;fill-opacity:0.98039216;stroke:none"
               d="m 502.50545,1151.6586 c -1.64268,18.2408 -3.05178,33.2436 -3.13091,33.3396 -0.16643,0.2016 -40.57955,7.0283 -40.83278,6.8925 -0.093,-0.05 -7.44419,-13.8285 -15.51846,-30.1385 l -14.68082,-29.6548 38.57484,-6.8018 38.5749,-6.8018 z"
               id="path10005"
               inkscape:connector-curvature="0"
               sodipodi:nodetypes="sccscccs" />
            <path
               style="fill:#ff7e00;fill-opacity:0.98039216;stroke:none"
               d="M 257.91632,766.43837 C 250.21854,749.82007 243.93744,736.1227 243.95798,736 c 0.0433,-0.25778 31.62878,-26.3764 31.91598,-26.38542 0.10536,-0.004 13.36112,8.25375 28.50864,18.3415 l 27.54133,18.34133 -30.00589,25.17792 -30.00594,25.17798 z"
               id="path10013"
               inkscape:connector-curvature="0"
               sodipodi:nodetypes="sccscccs" />
            <path
               sodipodi:nodetypes="sccscccs"
               inkscape:connector-curvature="0"
               id="path10015"
               d="m 605.75272,1086.1693 c 7.69778,16.6183 13.97888,30.3156 13.95835,30.4383 -0.0433,0.2578 -31.62881,26.3764 -31.916,26.3855 -0.10537,0 -13.36112,-8.2538 -28.50864,-18.3415 l -27.54133,-18.3414 30.0059,-25.1779 30.00595,-25.178 z"
               style="fill:#ff7e00;fill-opacity:0.98039216;stroke:none" />
            <path
               sodipodi:nodetypes="sccscccs"
               inkscape:connector-curvature="0"
               id="path10023"
               d="m 201.1071,875.06837 c -14.97563,-10.54298 -27.2639,-19.2647 -27.30747,-19.38123 -0.0913,-0.24492 14.20314,-38.65703 14.44735,-38.80843 0.0895,-0.0558 15.69794,0.4674 33.85995,1.62988 l 33.02216,2.11339 -13.3969,36.80767 -13.39692,36.80774 z"
               style="fill:#ff7e00;fill-opacity:0.98039216;stroke:none" />
            <path
               style="fill:#ff7e00;fill-opacity:0.98039216;stroke:none"
               d="m 662.2077,978.04524 c 14.97563,10.54298 27.2639,19.2647 27.30747,19.38123 0.0913,0.24491 -14.20314,38.65703 -14.44735,38.80843 -0.0895,0.056 -15.69794,-0.4674 -33.85996,-1.6299 l -33.02215,-2.1134 13.3969,-36.80764 13.39692,-36.80774 z"
               id="path10025"
               inkscape:connector-curvature="0"
               sodipodi:nodetypes="sccscccs" />
            <path
               style="fill:#ff7e00;fill-opacity:0.98039216;stroke:none"
               d="m 206.14877,997.26901 c -18.24077,-1.64268 -33.24358,-3.05177 -33.33958,-3.1309 -0.20156,-0.16643 -7.02823,-40.57954 -6.89244,-40.83276 0.0496,-0.093 13.82851,-7.4442 30.13852,-15.51846 l 29.65472,-14.68083 6.80178,38.57482 6.8018,38.57492 z"
               id="path10033"
               inkscape:connector-curvature="0"
               sodipodi:nodetypes="sccscccs" />
            <path
               sodipodi:nodetypes="sccscccs"
               inkscape:connector-curvature="0"
               id="path10035"
               d="m 656.96204,855.89929 c 18.24077,1.64268 33.24358,3.05178 33.33958,3.13091 0.20156,0.16643 7.02824,40.57955 6.89245,40.83278 -0.0496,0.093 -13.82852,7.44419 -30.13852,15.51846 l -29.65472,14.68082 -6.80179,-38.57484 -6.80179,-38.5749 z"
               style="fill:#ff7e00;fill-opacity:0.98039216;stroke:none" />
            <path
               sodipodi:nodetypes="sccscccs"
               inkscape:connector-curvature="0"
               id="path10043"
               d="m 271.74177,1100.4885 c -16.6183,7.6978 -30.31567,13.9788 -30.43837,13.9583 -0.25778,-0.043 -26.3764,-31.6288 -26.38542,-31.916 -0.004,-0.1053 8.25375,-13.3611 18.3415,-28.5086 l 18.34133,-27.5413 25.17792,30.0058 25.17798,30.006 z"
               style="fill:#ff7e00;fill-opacity:0.98039216;stroke:none" />
            <path
               style="fill:#ff7e00;fill-opacity:0.98039216;stroke:none"
               d="m 591.47265,752.65207 c 16.61831,-7.69778 30.31568,-13.97888 30.43838,-13.95835 0.25777,0.0434 26.37641,31.62881 26.38543,31.916 0.004,0.10537 -8.25375,13.36112 -18.3415,28.50864 l -18.34133,27.54133 -25.17794,-30.0059 -25.17798,-30.00595 z"
               id="path10045"
               inkscape:connector-curvature="0"
               sodipodi:nodetypes="sccscccs" />
          </g>
        </g>
      </g>
      <g
         id="g10147"
         transform="matrix(0.17609832,-0.17712332,0.17712332,0.17609832,1.8788781,787.54521)">
        <path
           inkscape:connector-curvature="0"
           id="path10149"
           d="m 1562.7603,593.57021 c 108.0342,0 195.5997,-87.56553 195.5997,-195.59981 0,-108.03435 -87.5655,-195.62035 -195.5997,-195.62035 -108.0343,0 -195.6203,87.586 -195.6203,195.62035 0,108.03428 87.586,195.59981 195.6203,195.59981 z m 0,-64.05176 c -72.6602,0 -131.5685,-58.88786 -131.5685,-131.54805 0,-72.66026 58.9083,-131.56859 131.5685,-131.56859 72.6602,0 131.5685,58.90833 131.5685,131.56859 0,72.66019 -58.9082,131.54798 -131.5685,131.54805 z"
           style="fill:#282a1f;fill-opacity:1;stroke:none" />
        <path
           sodipodi:nodetypes="sccscccs"
           inkscape:connector-curvature="0"
           id="path10151"
           d="m 1593.2196,595.66068 c -4.7852,17.67835 -8.7781,32.2086 -8.8727,32.28937 -0.1989,0.1696 -41.1835,-0.12506 -41.4093,-0.30279 -0.083,-0.065 -4.9298,-14.91106 -10.0492,-32.37539 l -9.3083,-31.75347 39.1699,0 39.17,0 z"
           style="fill:#282a1f;fill-opacity:1;stroke:none" />
        <path
           style="fill:#282a1f;fill-opacity:1;stroke:none"
           d="m 1532.2804,200.69025 c 4.7853,-17.67835 8.7781,-32.20861 8.8728,-32.28937 0.1988,-0.16961 41.1834,0.12505 41.4093,0.30279 0.083,0.065 4.9297,14.91105 10.0491,32.37538 l 9.3084,31.75347 -39.17,0 -39.1699,0 z"
           id="path10153"
           inkscape:connector-curvature="0"
           sodipodi:nodetypes="sccscccs" />
        <path
           style="fill:#282a1f;fill-opacity:1;stroke:none"
           d="m 1687.88,553.96782 c 4.6951,17.70256 8.5023,32.28254 8.4607,32.39979 -0.087,0.24637 -35.7284,20.48344 -36.0129,20.44244 -0.1041,-0.0151 -11.7248,-10.44846 -24.8905,-23.0133 l -23.938,-22.84514 33.9221,-19.58498 33.9223,-19.58498 z"
           id="path10155"
           inkscape:connector-curvature="0"
           sodipodi:nodetypes="sccscccs" />
        <path
           sodipodi:nodetypes="sccscccs"
           inkscape:connector-curvature="0"
           id="path10157"
           d="m 1437.62,242.38304 c -4.6951,-17.7025 -8.5023,-32.28248 -8.4607,-32.39979 0.087,-0.2463 35.7285,-20.48344 36.0129,-20.44244 0.1041,0.0151 11.7248,10.44853 24.8905,23.01337 l 23.938,22.84514 -33.9221,19.58497 -33.9222,19.58498 z"
           style="fill:#282a1f;fill-opacity:1;stroke:none" />
        <path
           sodipodi:nodetypes="sccscccs"
           inkscape:connector-curvature="0"
           id="path10159"
           d="m 1748.9984,470.47988 c 12.9173,12.9833 23.5044,23.70634 23.527,23.8287 0.047,0.25699 -20.7,35.6034 -20.9669,35.71008 -0.098,0.0394 -15.3781,-3.18622 -33.0624,-7.48486 l -32.1535,-7.81546 19.585,-33.92214 19.585,-33.92221 z"
           style="fill:#282a1f;fill-opacity:1;stroke:none" />
        <path
           style="fill:#282a1f;fill-opacity:1;stroke:none"
           d="m 1376.4744,325.76955 c -12.9173,-12.98337 -23.5044,-23.70634 -23.5271,-23.8287 -0.047,-0.25706 20.7001,-35.6034 20.9669,-35.71015 0.098,-0.0394 15.3782,3.18628 33.0625,7.48486 l 32.1535,7.81546 -19.585,33.92221 -19.585,33.9222 z"
           id="path10161"
           inkscape:connector-curvature="0"
           sodipodi:nodetypes="sccscccs" />
        <path
           style="fill:#282a1f;fill-opacity:1;stroke:none"
           d="m 1760.2746,367.64086 c 17.6784,4.78527 32.2086,8.7781 32.2894,8.87277 0.1696,0.19887 -0.125,41.18346 -0.3028,41.40929 -0.065,0.0827 -14.911,4.92974 -32.3754,10.04916 l -31.7534,9.30835 0,-39.16996 0,-39.16995 z"
           id="path10163"
           inkscape:connector-curvature="0"
           sodipodi:nodetypes="sccscccs" />
        <path
           sodipodi:nodetypes="sccscccs"
           inkscape:connector-curvature="0"
           id="path10165"
           d="m 1365.3042,428.58009 c -17.6783,-4.78527 -32.2086,-8.7781 -32.2894,-8.87277 -0.1696,-0.19887 0.1251,-41.18346 0.3028,-41.40929 0.065,-0.0827 14.9111,-4.92974 32.3754,-10.04916 l 31.7535,-9.30835 0,39.16996 0,39.16995 z"
           style="fill:#282a1f;fill-opacity:1;stroke:none" />
        <path
           sodipodi:nodetypes="sccscccs"
           inkscape:connector-curvature="0"
           id="path10167"
           d="m 1718.5818,272.9804 c 17.7025,-4.69499 32.2825,-8.50221 32.3998,-8.46061 0.2463,0.0874 20.4834,35.72845 20.4424,36.01287 -0.015,0.10412 -10.4484,11.72483 -23.0133,24.89053 l -22.8451,23.93801 -19.585,-33.92221 -19.585,-33.92214 z"
           style="fill:#282a1f;fill-opacity:1;stroke:none" />
        <path
           style="fill:#282a1f;fill-opacity:1;stroke:none"
           d="m 1406.997,523.24055 c -17.7025,4.69499 -32.2825,8.50227 -32.3998,8.46068 -0.2463,-0.0875 -20.4834,-35.72845 -20.4424,-36.01294 0.015,-0.10412 10.4485,-11.72477 23.0133,-24.89053 l 22.8452,-23.93801 19.5849,33.92221 19.585,33.92221 z"
           id="path10169"
           inkscape:connector-curvature="0"
           sodipodi:nodetypes="sccscccs" />
        <path
           style="fill:#282a1f;fill-opacity:1;stroke:none"
           d="m 1635.0938,211.86206 c 12.9833,-12.91724 23.7064,-23.50439 23.8287,-23.52703 0.257,-0.0472 35.6034,20.70002 35.7101,20.96692 0.039,0.0976 -3.1862,15.3782 -7.4848,33.06246 l -7.8155,32.15349 -33.9221,-19.58498 -33.9222,-19.58498 z"
           id="path10171"
           inkscape:connector-curvature="0"
           sodipodi:nodetypes="sccscccs" />
        <path
           sodipodi:nodetypes="sccscccs"
           inkscape:connector-curvature="0"
           id="path10173"
           d="m 1490.3835,584.38612 c -12.9834,12.9173 -23.7064,23.50446 -23.8287,23.52703 -0.2571,0.0472 -35.6034,-20.70002 -35.7101,-20.96686 -0.039,-0.0976 3.1862,-15.3782 7.4848,-33.06252 l 7.8155,-32.15349 33.9222,19.58498 33.9221,19.58498 z"
           style="fill:#282a1f;fill-opacity:1;stroke:none" />
      </g>
    </g>
    <text
       sodipodi:linespacing="125%"
       id="text6511"
       y="610.15894"
       x="450.68961"
       style="font-size:37.48142242px;font-style:normal;font-variant:normal;font-weight:normal;font-stretch:normal;text-align:center;line-height:125%;letter-spacing:0px;word-spacing:0px;text-anchor:middle;fill:#6c5353;fill-opacity:1;stroke:none;font-family:Ubuntu;-inkscape-font-specification:Ubuntu"
       xml:space="preserve"><tspan
         id="tspan6515"
         style="font-size:46.85177994px;font-weight:500;fill:#6c5353;-inkscape-font-specification:Ubuntu Medium"
         y="610.15894"
         x="450.68961"
         sodipodi:role="line">Desenvolvimento</tspan></text>
    <text
       xml:space="preserve"
       style="font-size:37.48142242px;font-style:normal;font-variant:normal;font-weight:normal;font-stretch:normal;text-align:center;line-height:125%;letter-spacing:0px;word-spacing:0px;text-anchor:middle;fill:#ff7f04;fill-opacity:1;stroke:none;font-family:Ubuntu;-inkscape-font-specification:Ubuntu"
       x="448.68961"
       y="606.58533"
       id="text7082"
       sodipodi:linespacing="125%"><tspan
         sodipodi:role="line"
         x="448.68961"
         y="606.58533"
         style="font-size:46.85177994px;font-weight:500;-inkscape-font-specification:Ubuntu Medium"
         id="tspan6509">Desenvolvimento</tspan></text>
  </g>
</svg>
